<svg width="293" height="194" viewBox="0 0 293 194" fill="none" xmlns="http://www.w3.org/2000/svg">
<path d="M292.86 193.463C292.86 193.519 230.137 193.568 152.784 193.568C75.4319 193.568 12.6919 193.519 12.6919 193.463C12.6919 193.406 75.4034 193.357 152.784 193.357C230.165 193.357 292.86 193.401 292.86 193.463Z" fill="#263238"/>
<path d="M161.915 52.5112C165.368 51.8707 168.452 49.9489 170.548 47.1308C172.644 44.3127 173.598 40.8066 173.218 37.3149C172.839 33.8233 171.154 30.6041 168.501 28.3024C165.848 26.0007 162.423 24.7865 158.913 24.9032C155.402 25.0199 152.066 26.4587 149.572 28.9315C147.077 31.4043 145.61 34.7283 145.463 38.2374C145.316 41.7465 146.5 45.1816 148.779 47.8543C151.058 50.527 154.262 52.2398 157.751 52.6496L160.148 56.2844L161.915 52.5112Z" fill="white"/>
<path d="M161.915 52.5112C161.915 52.5112 161.882 52.6048 161.809 52.7717C161.736 52.9386 161.622 53.1787 161.483 53.5084C161.186 54.1597 160.755 55.0999 160.205 56.3129L160.16 56.4146L160.095 56.321L157.661 52.6944L157.722 52.7351C155.325 52.4651 153.039 51.5773 151.088 50.1586C150.525 49.7502 149.993 49.3012 149.496 48.8153C148.985 48.2981 148.51 47.7459 148.076 47.1628C147.14 45.9223 146.424 44.5304 145.959 43.0477C144.857 39.5687 145.151 35.7976 146.779 32.5315C148.407 29.2653 151.241 26.7601 154.682 25.5453C157.653 24.4933 160.894 24.4832 163.873 25.5168C165.283 25.9698 166.607 26.6579 167.788 27.552C168.931 28.3983 169.933 29.4188 170.76 30.5762L171.069 30.9833C171.162 31.1298 171.248 31.2804 171.333 31.4269C171.504 31.724 171.692 32.009 171.846 32.3061C172.438 33.4795 172.876 34.7245 173.149 36.0101C173.206 36.3235 173.246 36.641 173.291 36.9503L173.36 37.4103L173.381 37.8743C173.457 39.0615 173.387 40.2535 173.173 41.4236C172.954 42.4969 172.617 43.5426 172.168 44.5415C171.385 46.2696 170.271 47.8268 168.887 49.1247C167.839 50.0844 166.651 50.8778 165.362 51.4773C164.551 51.856 163.702 52.1506 162.831 52.3565C162.533 52.4257 162.305 52.4746 162.155 52.4949C162.076 52.5109 161.995 52.5217 161.915 52.5275C161.988 52.5011 162.062 52.4807 162.139 52.4664C162.293 52.4339 162.525 52.3769 162.818 52.2995C163.677 52.0677 164.512 51.7571 165.313 51.3715C166.579 50.7603 167.746 49.9617 168.773 49.0026C170.926 46.9644 172.385 44.3022 172.945 41.3911C173.149 40.2389 173.214 39.0663 173.137 37.8987L173.128 37.4551L173.059 37.0033C173.01 36.698 172.974 36.3886 172.917 36.0834C172.782 35.4624 172.608 34.8506 172.396 34.2517C172.176 33.6293 171.913 33.0228 171.61 32.4364C171.456 32.1433 171.272 31.8624 171.105 31.5734C171.016 31.431 170.935 31.2804 170.841 31.142L170.54 30.735C169.725 29.6028 168.739 28.6045 167.617 27.7758C166.462 26.8853 165.164 26.1972 163.779 25.7407C160.864 24.762 157.704 24.7979 154.812 25.8424C151.446 27.0335 148.672 29.4828 147.073 32.676C145.475 35.8691 145.176 39.5575 146.24 42.9663C146.69 44.4247 147.388 45.7947 148.304 47.0163C148.727 47.5911 149.191 48.1352 149.692 48.6444C150.177 49.1248 150.697 49.5696 151.246 49.9754C153.16 51.3802 155.403 52.2701 157.759 52.56H157.8L157.824 52.5926C158.744 54.0091 159.546 55.2424 160.201 56.2559H160.091L161.438 53.4555L161.789 52.7432C161.826 52.6633 161.868 52.5858 161.915 52.5112Z" fill="#263238"/>
<path d="M164.894 37.3211C164.825 36.6186 164.541 35.9545 164.08 35.4202C163.653 34.8775 163.066 34.483 162.403 34.2928C161.837 34.1431 161.238 34.1845 160.699 34.4105C160.159 34.6364 159.709 35.0344 159.419 35.5423C159.157 35.0426 158.743 34.6391 158.237 34.3903C157.731 34.1415 157.158 34.0603 156.603 34.1584C155.926 34.295 155.309 34.641 154.84 35.1475C154.339 35.6428 154.005 36.2814 153.884 36.9751C153.739 37.8593 153.882 38.7667 154.291 39.5638C154.774 40.3732 155.444 41.0555 156.244 41.5542C157.543 42.409 159.252 43.4835 159.252 43.4835C159.252 43.4835 160.779 42.4375 162.138 41.6885C162.978 41.2584 163.703 40.6331 164.251 39.865C164.734 39.1085 164.959 38.2162 164.894 37.3211Z" fill="#FFCA59"/>
<path d="M93.6963 193.414L95.9797 176.632L144.653 174.312L148.08 193.463L93.6963 193.414Z" fill="#263238"/>
<path d="M139.305 123.811L153.905 140.015C156.315 142.689 158.057 145.123 161.521 146.1C163.963 146.784 169.059 147.069 170.349 145.473C172.12 143.287 173.198 139.506 170.756 134.752C169.128 131.654 154.971 119.004 154.971 119.004L139.305 123.811Z" fill="#C27461"/>
<path d="M144.11 126.518C144.195 127.332 148.013 135.285 148.013 135.285L160.55 127.108C160.55 127.108 152.478 107.937 146.585 106.647L144.11 126.518Z" fill="#FFCA59"/>
<path d="M165.578 104.172L165.757 98.0663L165.35 90.3083L164.129 83.8527C164.129 83.8527 163.803 83.2218 162.989 83.6981C162.175 84.1743 162.879 87.6992 162.879 87.6992L163.009 90.349C163.009 90.349 162.529 92.3841 162.378 92.2173C162.228 92.0504 161.715 88.4726 161.715 88.4726L160.233 80.7959C160.126 80.559 159.932 80.3722 159.692 80.2738C159.451 80.1754 159.182 80.1729 158.939 80.2668C158.414 80.4296 158.072 81.1948 158.125 82.3304C158.178 83.4661 158.683 85.3873 158.736 86.0344C158.788 86.6816 159.216 90.4141 159.216 90.4141L156.623 81.8298C156.623 81.8298 156.143 79.0335 154.995 79.4364C153.847 79.8394 154.608 81.842 154.661 82.6927C154.714 83.5434 156.387 89.421 156.244 91.0491C156.102 92.6772 155.837 91.8631 155.837 91.8631L154.616 87.0561C154.087 84.9355 153.285 83.7062 152.365 83.5515C151.446 83.3969 152.679 88.3098 152.679 88.3098L154.234 95.1764L153.847 97.3622L152.317 95.3962C152.317 95.3962 152.272 92.8197 150.664 91.7329C149.056 90.6461 148.629 91.8631 148.629 91.8631L151.629 101.84C152.341 103.468 156.941 106.642 156.941 106.642L157.755 116.643L167.971 116.44L165.578 104.172Z" fill="#C27461"/>
<path d="M161.992 100.57C161.943 100.619 161.459 100.13 160.628 99.4261C159.798 98.7219 158.516 97.798 156.892 97.8794C156.218 97.8899 155.567 98.1264 155.044 98.551L154.873 98.7016L154.722 98.5021C154.067 97.6392 153.367 96.874 152.947 96.3408C152.528 95.8076 152.292 95.4372 152.337 95.4087C152.633 95.6343 152.906 95.8893 153.151 96.1698C153.834 96.8411 154.484 97.5461 155.097 98.2823L154.775 98.2335C155.361 97.7237 156.107 97.4356 156.883 97.4194C157.716 97.3925 158.54 97.5908 159.269 97.9933C159.847 98.316 160.379 98.7144 160.852 99.1778C161.638 99.9715 162.032 100.533 161.992 100.57Z" fill="#7D4336"/>
<path d="M159.343 138.997L157.177 107.872L165.831 105.161L172.111 138.997H159.343Z" fill="#C27461"/>
<path d="M140.599 67.8853C141.452 68.0318 142.33 67.8563 143.063 67.3928C143.795 66.9294 144.329 66.2109 144.562 65.3763C144.795 64.5418 144.71 63.6505 144.324 62.8749C143.937 62.0993 143.277 61.4944 142.471 61.1774C143.035 60.6613 143.422 59.981 143.578 59.2326C143.734 58.4843 143.65 57.7059 143.339 57.0076C143.028 56.3094 142.505 55.7267 141.844 55.3421C141.184 54.9574 140.419 54.7903 139.658 54.8644C139.67 54.1113 139.486 53.368 139.126 52.707C138.765 52.046 138.239 51.4897 137.599 51.0925C136.959 50.6953 136.227 50.4706 135.474 50.4404C134.722 50.4102 133.974 50.5755 133.304 50.9202C132.499 50.1781 131.468 49.728 130.376 49.6424C129.284 49.5568 128.196 49.8405 127.284 50.4481C126.56 50.2739 125.8 50.3361 125.113 50.6254C124.427 50.9148 123.852 51.4162 123.471 52.0562C123.09 52.6962 122.924 53.4413 122.997 54.1825C123.071 54.9236 123.379 55.6218 123.878 56.175" fill="#263238"/>
<path d="M141.038 87.3858C141.31 83.5434 141.233 75.5819 141.078 68.3896C140.996 64.6586 139.512 61.0952 136.922 58.4081C134.333 55.721 130.826 54.107 127.101 53.8871L126.336 53.8423C118.028 53.8423 113.384 60.8921 113.608 69.1956L112.33 101.176L117.365 105.702C118.432 106.668 119.705 107.377 121.088 107.776C122.471 108.175 123.926 108.254 125.344 108.006C126.761 107.758 128.104 107.189 129.269 106.345C130.434 105.5 131.39 104.4 132.067 103.13V103.13L132.453 96.1004C132.453 96.1004 140.472 95.3474 141.038 87.3858Z" fill="#C27461"/>
<path d="M132.506 96.1088C128.81 95.8953 125.252 94.6237 122.257 92.4456C122.257 92.4456 124.374 98.319 132.356 98.0707L132.506 96.1088Z" fill="#7D4336"/>
<path d="M137.561 75.1179C137.546 75.4145 137.416 75.6935 137.199 75.8958C136.981 76.098 136.694 76.2074 136.397 76.2006C136.252 76.2033 136.107 76.177 135.972 76.1231C135.837 76.0693 135.714 75.989 135.611 75.887C135.507 75.785 135.425 75.6633 135.369 75.5292C135.314 75.395 135.285 75.251 135.286 75.1057C135.3 74.8092 135.43 74.5301 135.648 74.3279C135.865 74.1256 136.153 74.0163 136.45 74.023C136.595 74.0203 136.739 74.0466 136.874 74.1005C137.009 74.1544 137.132 74.2346 137.236 74.3366C137.339 74.4386 137.421 74.5603 137.477 74.6945C137.533 74.8286 137.562 74.9726 137.561 75.1179V75.1179Z" fill="#263238"/>
<path d="M139.138 72.1996C138.987 72.3379 138.165 71.6501 136.944 71.5809C135.723 71.5117 134.787 72.0693 134.665 71.9146C134.603 71.8454 134.762 71.5849 135.169 71.3244C135.72 70.988 136.361 70.8302 137.005 70.8726C137.641 70.9097 138.249 71.1461 138.743 71.5483C139.101 71.8617 139.211 72.1344 139.138 72.1996Z" fill="#263238"/>
<path d="M126.339 75.1179C126.325 75.4145 126.195 75.6935 125.977 75.8958C125.76 76.098 125.472 76.2074 125.175 76.2006C125.03 76.2039 124.885 76.1779 124.75 76.1243C124.615 76.0706 124.492 75.9903 124.388 75.8882C124.284 75.7861 124.202 75.6642 124.147 75.5298C124.091 75.3954 124.063 75.2512 124.064 75.1057C124.078 74.8095 124.207 74.5304 124.424 74.3281C124.64 74.1258 124.928 74.0163 125.224 74.023C125.37 74.0197 125.514 74.0457 125.65 74.0993C125.785 74.1529 125.909 74.2331 126.013 74.3352C126.117 74.4372 126.199 74.5591 126.255 74.6935C126.311 74.8279 126.34 74.9722 126.339 75.1179V75.1179Z" fill="#263238"/>
<path d="M127.105 71.7191C126.954 71.8575 126.132 71.1696 124.907 71.1004C123.681 71.0312 122.753 71.5889 122.631 71.4342C122.566 71.3609 122.725 71.1045 123.136 70.844C123.686 70.5063 124.328 70.3484 124.972 70.3922C125.607 70.4265 126.215 70.6633 126.706 71.0679C127.064 71.3813 127.178 71.654 127.105 71.7191Z" fill="#263238"/>
<path d="M131.008 81.0484C131.008 80.9792 131.774 80.8897 133.015 80.8083C133.328 80.8083 133.63 80.7472 133.695 80.5396C133.738 80.2178 133.684 79.8904 133.54 79.5994C133.29 78.826 133.029 78.012 132.754 77.1572C131.672 73.6933 130.911 70.8563 131.049 70.8156C131.187 70.7749 132.181 73.5428 133.263 77.0025C133.535 77.8573 133.782 78.6714 134.004 79.4447C134.176 79.8288 134.207 80.2608 134.094 80.6658C134.043 80.7734 133.968 80.8679 133.875 80.942C133.782 81.0161 133.673 81.0678 133.556 81.0932C133.38 81.1294 133.199 81.1431 133.019 81.1339C131.778 81.1583 131.008 81.1176 131.008 81.0484Z" fill="#263238"/>
<path d="M127.357 81.6876C127.557 81.6876 127.483 83.0186 128.578 84.024C129.673 85.0294 131.082 84.9724 131.082 85.1596C131.082 85.241 130.752 85.3957 130.154 85.3794C129.376 85.344 128.635 85.0356 128.061 84.5084C127.511 84.0019 127.18 83.3012 127.137 82.5546C127.101 81.9888 127.268 81.6876 127.357 81.6876Z" fill="#263238"/>
<path d="M127.703 66.9446C127.565 67.2702 126.352 67.0382 124.907 67.1278C123.462 67.2173 122.277 67.5348 122.106 67.2295C122.029 67.083 122.249 66.7818 122.737 66.4887C123.384 66.1303 124.104 65.9242 124.843 65.8861C125.581 65.848 126.319 65.9789 126.999 66.2689C127.516 66.5132 127.764 66.7899 127.703 66.9446Z" fill="#263238"/>
<path d="M138.897 68.6341C138.665 68.8986 137.838 68.5608 136.829 68.4875C135.819 68.4143 134.944 68.5649 134.765 68.2596C134.688 68.1131 134.838 67.8526 135.229 67.6043C135.751 67.3174 136.347 67.1928 136.94 67.2464C137.533 67.3001 138.097 67.5296 138.559 67.9055C138.901 68.2108 138.998 68.5038 138.897 68.6341Z" fill="#263238"/>
<path d="M140.53 64.7101C140.53 64.7101 138.723 59.606 136.39 58.2994C133.565 56.7201 132.125 59.838 129.397 58.9018C126.67 57.9656 123.972 56.4596 121.013 58.4256C117.756 60.5869 119.132 62.3168 118.729 65.8376C117.101 80.1041 114.252 83.9994 113.91 77.2142C113.873 76.4693 111.875 75.7611 111.736 72.6229C111.582 68.5525 111.716 63.6315 112.791 60.8189C113.694 58.4418 115.172 56.8544 117.756 55.153C121.827 52.4747 127.204 52.7108 130.826 53.3092C134.449 53.9075 141.23 58.4866 140.53 64.7101Z" fill="#263238"/>
<path d="M114.43 77.0269C114.437 76.7343 114.385 76.4433 114.277 76.1714C114.168 75.8996 114.006 75.6525 113.799 75.4452C113.593 75.2378 113.346 75.0745 113.075 74.9651C112.803 74.8557 112.513 74.8024 112.22 74.8086C110.73 74.8615 109.029 75.6226 108.943 78.6795C108.797 84.1296 114.3 83.1568 114.312 82.9981C114.324 82.8393 114.389 79.3063 114.43 77.0269Z" fill="#C27461"/>
<path d="M113.184 80.914C113.16 80.914 113.087 80.9791 112.924 81.0483C112.695 81.1388 112.44 81.1388 112.212 81.0483C111.642 80.8204 111.182 79.8923 111.182 78.9114C111.181 78.4425 111.286 77.9794 111.487 77.556C111.543 77.3874 111.638 77.2348 111.766 77.1114C111.894 76.988 112.049 76.8975 112.22 76.8477C112.33 76.8228 112.445 76.8368 112.546 76.8872C112.647 76.9377 112.727 77.0215 112.773 77.1245C112.842 77.2792 112.806 77.385 112.834 77.3972C112.863 77.4094 112.952 77.3077 112.916 77.0797C112.887 76.9446 112.814 76.8228 112.708 76.7338C112.636 76.6751 112.552 76.6315 112.463 76.6056C112.373 76.5797 112.28 76.5721 112.187 76.5832C111.963 76.6205 111.751 76.715 111.574 76.8576C111.396 77.0001 111.259 77.186 111.174 77.3972C110.929 77.8645 110.802 78.3841 110.803 78.9114C110.803 80.0104 111.345 81.0524 112.126 81.3007C112.271 81.347 112.425 81.3602 112.576 81.339C112.726 81.3179 112.87 81.263 112.997 81.1785C113.168 81.0442 113.201 80.9262 113.184 80.914Z" fill="#7D4336"/>
<path d="M115.158 66.4929C115.833 67.0179 116.554 67.5593 117.396 67.714C118.239 67.8686 119.248 67.4168 119.432 66.5824C119.517 66.2079 119.432 65.7684 119.717 65.4834C120.001 65.1985 120.579 65.2921 121.031 65.3695C121.822 65.4786 122.627 65.3119 123.31 64.8975C123.992 64.4832 124.512 63.8463 124.78 63.0942C125.15 63.721 126.091 63.7495 126.726 63.3913C127.361 63.0331 127.792 62.4144 128.301 61.8934C128.81 61.3724 129.522 60.9247 130.222 61.0793C130.629 61.1607 130.983 61.4212 131.39 61.409C132.111 61.3887 132.506 60.5705 132.656 59.8704C132.807 59.1704 132.941 58.3441 133.568 57.994C134.195 57.644 134.862 57.9208 135.518 58.0551C136.173 58.1894 137.028 58.0877 137.231 57.4527C137.27 57.282 137.273 57.1054 137.242 56.9333C137.21 56.7613 137.144 56.5973 137.048 56.4514C136.645 55.7701 136.024 55.2442 135.286 54.9578C134.548 54.6714 133.735 54.6412 132.978 54.8721C132.763 53.9509 132.28 53.1141 131.59 52.4674C130.899 51.8208 130.033 51.3933 129.1 51.2391C128.167 51.0848 127.209 51.2108 126.347 51.601C125.485 51.9912 124.759 52.6281 124.259 53.4312C123.712 52.8732 123.039 52.4554 122.296 52.2133C121.553 51.9713 120.762 51.912 119.992 52.0407C119.221 52.1693 118.493 52.4821 117.869 52.9523C117.245 53.4226 116.743 54.0364 116.407 54.7418C115.75 54.5249 115.044 54.5067 114.376 54.6895C113.709 54.8722 113.11 55.2479 112.655 55.7693C112.2 56.2908 111.909 56.9349 111.819 57.6209C111.728 58.307 111.842 59.0046 112.146 59.6262C111.136 60.1269 110.241 61.0468 110.155 62.1743C110.07 63.3017 111.1 64.4821 112.191 64.2501C111.928 64.6818 111.842 65.1987 111.953 65.6919C112.064 66.1851 112.362 66.6159 112.784 66.8936C113.207 67.1713 113.72 67.2741 114.217 67.1804C114.714 67.0866 115.155 66.8037 115.447 66.3911" fill="#263238"/>
<path d="M133.283 56.4514C133.283 56.4514 133.283 56.488 133.283 56.5532C133.283 56.6183 133.263 56.716 133.23 56.8422C133.135 57.2067 132.981 57.5532 132.774 57.8679C132.445 58.3669 132.007 58.7845 131.492 59.089C130.811 59.4987 130.016 59.6758 129.225 59.5937L129.327 59.4797C129.46 59.9845 129.388 60.5213 129.127 60.9735C128.854 61.4473 128.514 61.8792 128.118 62.2557C127.924 62.4747 127.707 62.6725 127.471 62.8459C127.204 63.006 126.902 63.0983 126.592 63.1145C126.268 63.1419 125.942 63.0894 125.644 62.9617C125.345 62.8339 125.082 62.6348 124.878 62.3819L125.082 62.3371C124.974 62.8988 124.75 63.4315 124.423 63.9007C124.096 64.3699 123.674 64.765 123.185 65.0602C122.646 65.4123 122.007 65.5794 121.365 65.5364C120.762 65.4743 120.174 65.3091 119.627 65.0479L119.778 64.991C119.456 65.6331 118.979 66.1844 118.39 66.5947C118.119 66.8015 117.806 66.9454 117.473 67.0158C117.14 67.0862 116.796 67.0814 116.465 67.0017C115.9 66.8445 115.394 66.5257 115.009 66.0845C114.623 65.6434 114.375 65.0991 114.295 64.5188L114.417 64.5839C113.825 64.8548 113.158 64.9123 112.529 64.7467C112.059 64.6319 111.624 64.4073 111.259 64.0914C111.032 63.89 110.841 63.652 110.693 63.3872C110.638 63.2976 110.597 63.2002 110.571 63.0983C110.761 63.4491 111.015 63.7612 111.32 64.0181C111.682 64.3119 112.106 64.5181 112.561 64.6206C113.158 64.7635 113.786 64.6974 114.34 64.4333L114.446 64.3804V64.4985C114.531 65.0394 114.77 65.5443 115.134 65.9529C115.499 66.3615 115.974 66.6564 116.501 66.8023C116.803 66.872 117.116 66.8735 117.418 66.8066C117.72 66.7397 118.004 66.6061 118.247 66.4156C118.802 66.0241 119.251 65.501 119.554 64.8933L119.603 64.7915L119.701 64.8363C120.226 65.083 120.788 65.2412 121.365 65.3044C121.959 65.3406 122.549 65.1835 123.046 64.8566C123.507 64.5772 123.905 64.2048 124.214 63.7634C124.523 63.3219 124.736 62.8209 124.841 62.2923L124.89 62.0359L125.045 62.2476C125.226 62.4693 125.459 62.6436 125.723 62.7556C125.986 62.8677 126.273 62.914 126.559 62.8907C126.834 62.8778 127.103 62.7982 127.341 62.6587C127.562 62.4968 127.767 62.3127 127.951 62.1092C128.334 61.7495 128.666 61.3386 128.936 60.8881C129.177 60.4812 129.249 59.9959 129.136 59.5367L129.099 59.4024L129.233 59.4228C129.986 59.5102 130.747 59.3517 131.403 58.9709C131.906 58.6875 132.34 58.2953 132.673 57.8231C132.96 57.408 133.167 56.9428 133.283 56.4514V56.4514Z" fill="#455A64"/>
<path d="M145.042 134.455L145.62 128.659L147.618 107.408C146.588 106.329 142.453 104.632 142.453 104.632L132.188 100.94C132.188 100.94 131.203 103.757 123.469 103.871C115.581 103.989 112.312 99.0555 112.312 99.0555C108.372 100.321 99.7635 103.59 99.7635 103.59L96.8288 131.236L96.6782 140.361L94.8628 186.836C94.8628 186.836 146.556 184.642 147.329 184.508L145.233 167.771L145.042 134.455Z" fill="#FFCA59"/>
<path opacity="0.3" d="M130.205 120.812V131.692L136.123 136.519L142.294 131.732L142.632 121.117L130.205 120.812Z" fill="black"/>
<path opacity="0.3" d="M95.9665 158.987L95.8159 162.854C95.8159 162.854 128.472 156.936 134.179 154.636C141.22 151.787 144.998 149.389 144.998 149.389L145.116 146.442L95.9665 158.987Z" fill="black"/>
<path d="M98.2335 105.914C98.2335 105.914 90.8743 107.09 89.3561 116.497C88.3792 122.549 85.4201 149.21 89.466 156.386C94.1469 164.673 136.417 150.769 136.417 150.769L137.862 140.04L105.3 142.197L101.229 119.586L98.2335 105.914Z" fill="#C27461"/>
<path d="M86.4302 137.451H107.075L101.425 103.02C101.425 103.02 89.5928 105.418 88.0461 117.779C86.4831 130.238 86.4302 137.451 86.4302 137.451Z" fill="#FFCA59"/>
<path d="M89.0264 137.451C89.0561 137.447 89.0862 137.447 89.1159 137.451H89.3886L90.4306 137.431L94.2812 137.398L107.074 137.365L106.968 137.484C106.944 137.215 106.92 136.926 106.895 136.637C106.464 131.443 106.081 126.742 105.784 123.319C105.654 121.63 105.548 120.254 105.47 119.281C105.442 118.817 105.413 118.467 105.397 118.182C105.397 118.068 105.397 117.974 105.397 117.897C105.392 117.865 105.392 117.832 105.397 117.799C105.41 117.83 105.417 117.864 105.418 117.897L105.45 118.178C105.479 118.447 105.519 118.813 105.564 119.277C105.658 120.246 105.788 121.617 105.947 123.307C106.248 126.73 106.663 131.427 107.119 136.621C107.143 136.91 107.168 137.195 107.192 137.463V137.577H107.078L94.2852 137.545L90.4347 137.512L89.3927 137.492H89.12C89.0549 137.451 89.0264 137.451 89.0264 137.451Z" fill="#263238"/>
<path d="M146.586 116.521C146.607 116.756 146.607 116.991 146.586 117.226C146.586 117.677 146.549 118.333 146.512 119.139C146.427 120.767 146.26 122.985 146.028 125.44C145.796 127.894 145.548 130.116 145.352 131.724C145.255 132.538 145.173 133.173 145.108 133.621C145.087 133.855 145.046 134.086 144.986 134.313C144.982 134.079 144.996 133.845 145.027 133.613C145.071 133.128 145.133 132.485 145.206 131.708C145.365 130.08 145.58 127.857 145.816 125.419C146.052 122.981 146.264 120.763 146.374 119.135C146.431 118.357 146.48 117.71 146.512 117.226C146.522 116.99 146.546 116.754 146.586 116.521Z" fill="#263238"/>
<path d="M107.397 112.773C107.302 112.656 107.224 112.528 107.165 112.39C107.006 112.093 106.815 111.735 106.587 111.315C105.983 110.128 105.239 109.017 104.373 108.006C103.494 107.01 102.372 106.259 101.116 105.824C100.584 105.673 100.039 105.571 99.4883 105.519C99.6353 105.487 99.7862 105.478 99.936 105.491C100.349 105.499 100.76 105.562 101.157 105.678C102.461 106.083 103.628 106.839 104.531 107.864C105.412 108.886 106.149 110.024 106.721 111.246C106.949 111.71 107.128 112.089 107.238 112.353C107.307 112.486 107.361 112.627 107.397 112.773V112.773Z" fill="#263238"/>
<path opacity="0.3" d="M104.719 138.998C104.682 138.794 108.289 137.915 108.289 137.915L105.647 120.82L107.076 137.451H104.434L104.719 138.998Z" fill="black"/>
<path d="M158.783 140.545L158.144 149.332L155.225 152.996L148.082 162.475L156.736 163.041C156.736 163.041 166.883 160.518 168.377 157.392C169.87 154.266 169.96 140.532 169.96 140.532L158.783 140.545Z" fill="#FFCFB4"/>
<path d="M201.542 111.275L202.031 77.084C202.344 68.9434 198.298 61.9099 190.158 61.8203L189.409 61.8569C185.759 62.0338 182.31 63.5771 179.746 66.1803C177.182 68.7834 175.691 72.2559 175.569 75.9077C175.337 82.9616 175.162 90.7603 175.394 94.5254C175.842 102.324 183.71 103.167 183.71 103.167C183.71 103.407 183.71 105.348 183.665 107.673V111.547L201.542 111.275Z" fill="#FFCFB4"/>
<path d="M183.686 103.166C183.686 103.166 188.615 103.219 193.699 99.6823C193.699 99.6823 191.492 105.499 183.673 105.165L183.686 103.166Z" fill="#FF9D64"/>
<path d="M188.29 79.8963C188.461 79.9451 189.25 79.3753 190.52 79.0822C191.79 78.7892 192.82 78.9153 192.934 78.8014C193.048 78.6874 192.796 78.6304 192.344 78.5612C191.688 78.4844 191.023 78.5257 190.382 78.6833C189.757 78.8198 189.166 79.077 188.64 79.4404C188.298 79.6887 188.208 79.8759 188.29 79.8963Z" fill="#263238"/>
<path d="M189.547 82.3059C189.56 82.5823 189.68 82.8427 189.883 83.0314C190.085 83.2201 190.353 83.322 190.63 83.3154C190.765 83.3197 190.899 83.2971 191.024 83.2488C191.15 83.2005 191.265 83.1276 191.362 83.0343C191.459 82.941 191.537 82.8292 191.59 82.7055C191.643 82.5818 191.671 82.4487 191.672 82.3141C191.663 82.0387 191.546 81.7781 191.346 81.5879C191.147 81.3977 190.881 81.2931 190.606 81.2965C190.469 81.2899 190.332 81.3111 190.204 81.3588C190.076 81.4066 189.959 81.4799 189.86 81.5743C189.761 81.6687 189.682 81.7822 189.629 81.908C189.575 82.0338 189.547 82.1691 189.547 82.3059V82.3059Z" fill="#263238"/>
<path d="M185.071 88.4115C185.071 88.3423 184.322 88.2487 183.105 88.151C182.8 88.151 182.507 88.09 182.446 87.8824C182.403 87.5681 182.458 87.2482 182.604 86.9666C182.857 86.2095 183.121 85.4198 183.418 84.5895C184.517 81.2111 185.299 78.4392 185.16 78.3945C185.022 78.3497 184.021 81.0565 182.922 84.4348L182.165 86.8241C181.989 87.2067 181.953 87.6388 182.063 88.0452C182.115 88.1478 182.189 88.2376 182.28 88.308C182.37 88.3784 182.476 88.4277 182.588 88.4522C182.76 88.4894 182.937 88.5045 183.113 88.497C184.314 88.5092 185.071 88.4807 185.071 88.4115Z" fill="#263238"/>
<path d="M189.247 74.5402C189.365 74.8333 190.415 74.642 191.661 74.7356C192.906 74.8292 193.928 75.1426 194.103 74.8618C194.168 74.7315 193.981 74.4547 193.562 74.1902C193.013 73.8653 192.395 73.674 191.759 73.6316C191.123 73.5892 190.485 73.6968 189.898 73.946C189.41 74.1576 189.194 74.4018 189.247 74.5402Z" fill="#263238"/>
<path d="M176.791 76.6404C176.921 76.8805 177.947 76.6404 179.181 76.6404C180.414 76.6404 181.431 76.8195 181.57 76.5752C181.627 76.4613 181.431 76.2415 181.004 76.0461C180.431 75.7992 179.812 75.6798 179.189 75.696C178.559 75.7011 177.937 75.8399 177.365 76.1031C176.95 76.3025 176.746 76.5264 176.791 76.6404Z" fill="#263238"/>
<path d="M201.661 83.0021C201.8 82.941 207.258 81.2152 207.201 86.8241C207.144 92.433 201.523 91.216 201.503 91.0573C201.482 90.8985 201.661 83.0021 201.661 83.0021Z" fill="#FFCFB4"/>
<path d="M203.248 88.9488C203.277 88.9488 203.346 89.018 203.513 89.0954C203.743 89.1985 204.004 89.2073 204.241 89.1198C204.835 88.9081 205.344 87.972 205.381 86.9625C205.401 86.4825 205.313 86.0042 205.124 85.5623C205.074 85.3859 204.981 85.2244 204.854 85.0918C204.727 84.9592 204.57 84.8594 204.396 84.8012C204.284 84.7715 204.165 84.7817 204.06 84.83C203.954 84.8782 203.869 84.9615 203.818 85.0657C203.741 85.2204 203.777 85.3344 203.745 85.3425C203.712 85.3507 203.627 85.2448 203.675 85.0169C203.707 84.8775 203.786 84.7535 203.899 84.6669C203.976 84.6093 204.063 84.5674 204.156 84.5437C204.249 84.52 204.346 84.5148 204.441 84.5285C204.671 84.5766 204.884 84.6831 205.061 84.8378C205.238 84.9925 205.372 85.1902 205.45 85.4117C205.685 85.898 205.796 86.4351 205.772 86.9747C205.727 88.1063 205.137 89.1564 204.323 89.3844C204.172 89.4264 204.013 89.4339 203.859 89.4064C203.705 89.3789 203.558 89.3172 203.431 89.2256C203.248 89.0832 203.248 88.957 203.248 88.9488Z" fill="#FF9D64"/>
<path d="M176.909 79.3102C177.031 79.4364 177.991 79.3753 179.233 79.7824C180.474 80.1894 181.292 80.8203 181.447 80.7796C181.52 80.7796 181.415 80.572 181.06 80.2871C180.532 79.8902 179.94 79.586 179.31 79.3876C178.709 79.1807 178.073 79.0882 177.438 79.1148C177.015 79.1474 176.848 79.2451 176.909 79.3102Z" fill="#263238"/>
<path d="M178.42 82.1759C178.431 82.4516 178.548 82.7122 178.748 82.9023C178.948 83.0924 179.215 83.1969 179.49 83.1935C179.625 83.1978 179.759 83.1752 179.884 83.1269C180.01 83.0786 180.124 83.0056 180.221 82.9122C180.318 82.8188 180.395 82.707 180.448 82.5833C180.5 82.4597 180.528 82.3266 180.528 82.1922C180.519 81.9169 180.402 81.6562 180.203 81.466C180.003 81.2758 179.737 81.1712 179.462 81.1746C179.327 81.1703 179.193 81.1929 179.068 81.2411C178.942 81.2894 178.827 81.3624 178.73 81.4557C178.633 81.549 178.555 81.6608 178.502 81.7844C178.449 81.9081 178.421 82.0412 178.42 82.1759Z" fill="#263238"/>
<path d="M165.192 68.6626C165.292 68.3514 165.512 68.0925 165.802 67.9422C166.421 67.5962 167.121 67.6613 167.797 67.6695C169.487 67.6755 171.156 67.2998 172.681 66.5705C172.159 66.2999 171.684 65.9482 171.273 65.5285C170.438 64.6493 169.974 63.3264 170.398 62.1868C170.427 62.076 170.481 61.9733 170.556 61.8866C170.63 61.7998 170.724 61.7313 170.829 61.6861C171.175 61.5925 171.472 61.9385 171.704 62.2112C172.474 63.1189 173.198 63.5177 174.378 63.4323C175.09 63.4045 175.785 63.2167 176.414 62.8828L176.483 62.8136C176.768 62.5327 177.045 62.2682 177.297 61.9995C179.332 60.0661 181.103 58.7433 182.894 58.0635C185.515 57.0866 189.87 56.7732 192.557 57.5507C195.243 58.3281 197.624 60.5912 197.929 63.3712C199.48 62.1257 201.76 62.1949 203.587 62.9886L203.636 62.9683C205.671 63.7538 206.79 65.9599 207.344 68.0765C207.377 68.1905 207.401 68.3085 207.429 68.4225C208.094 69.5524 209.021 70.5059 210.132 71.2025C210.328 71.3206 210.539 71.4712 210.572 71.6991C210.604 71.927 210.393 72.1061 210.201 72.2405C209.696 72.578 209.122 72.7991 208.52 72.8876C208.692 73.3938 208.907 73.8841 209.163 74.353C209.387 74.76 209.652 75.2321 209.436 75.6351C209.34 75.7839 209.201 75.8997 209.037 75.9666C208.873 76.0336 208.693 76.0486 208.52 76.0096C208.175 75.9252 207.852 75.7684 207.572 75.5496L208.219 77.2185C207.467 77.3243 206.7 77.2532 205.98 77.0109C205.496 78.9646 204.934 81.4557 204.397 82.7745C203.534 82.75 202.724 82.5302 202.183 82.9943C201.446 83.6211 201.092 84.834 199.903 84.3415C199.301 84.0892 198.776 82.7948 198.589 82.168C197.339 77.9931 197.001 73.5981 197.6 69.2813C196.785 68.3549 195.802 67.5924 194.702 67.0345L194.791 67.12C192.638 66.3059 190.196 65.4919 188.108 66.4728C186.48 67.2217 185.503 68.858 184.273 70.1361C183.198 71.3317 181.883 72.2891 180.416 72.9466C178.948 73.6041 177.359 73.9473 175.75 73.9541C175.384 76.2945 175.559 79.2821 175.392 81.4679L173.454 77.8819C173.315 77.6266 173.189 77.3644 173.076 77.0964L173.035 77.015C172.865 76.5839 172.67 76.1626 172.453 75.7531V75.7531C171.232 76.7707 169.531 75.1263 170.499 73.8727C170.69 73.6239 170.918 73.4057 171.175 73.2255C170.899 73.477 170.564 73.6533 170.2 73.7374C169.836 73.8216 169.457 73.8107 169.099 73.7058C168.745 73.5874 168.441 73.3559 168.232 73.0469C168.023 72.7379 167.921 72.3686 167.943 71.9962C167.979 71.7453 168.079 71.5079 168.235 71.308C168.391 71.108 168.596 70.9523 168.831 70.8565C167.864 70.9085 166.903 70.6719 166.071 70.1768C165.513 69.8837 164.988 69.3383 165.192 68.6626Z" fill="#263238"/>
<path d="M195.515 64.2054C195.79 64.4274 196.046 64.6725 196.28 64.9381C196.875 65.6972 197.264 66.5974 197.407 67.5513C197.523 68.2054 197.573 68.8694 197.558 69.5335C197.558 70.2539 197.464 71.0192 197.387 71.8251C197.294 72.6725 197.253 73.5248 197.265 74.3772C197.279 74.8305 197.326 75.2823 197.407 75.7285C197.465 76.2043 197.641 76.6578 197.92 77.0473C198.051 77.2037 198.221 77.3233 198.412 77.3947C198.603 77.466 198.81 77.4866 199.011 77.4544C199.394 77.391 199.746 77.2036 200.012 76.9211C200.453 76.3507 200.733 75.6737 200.826 74.9592H200.664C200.883 75.5512 201.187 76.1079 201.567 76.6118C201.934 77.0824 202.47 77.3918 203.061 77.4747C203.338 77.5121 203.62 77.4712 203.875 77.3567C204.11 77.2421 204.304 77.059 204.433 76.8316C204.555 76.6248 204.619 76.3882 204.616 76.1478C204.612 75.9235 204.53 75.7076 204.384 75.5372L204.298 75.6064C204.744 76.1488 205.299 76.5913 205.927 76.9049C206.146 77.0107 206.334 77.0758 206.439 77.1206C206.499 77.1425 206.56 77.1589 206.623 77.1694C206.569 77.1368 206.512 77.1108 206.452 77.0921C206.334 77.0392 206.167 76.9659 205.955 76.8519C205.344 76.5247 204.806 76.0776 204.372 75.5372L204.286 75.6105C204.411 75.7763 204.481 75.9771 204.485 76.1845C204.489 76.392 204.428 76.5956 204.311 76.7665C204.192 76.9675 204.016 77.1289 203.806 77.2305C203.575 77.3289 203.322 77.3626 203.073 77.3282C202.525 77.2446 202.029 76.9531 201.689 76.5141C201.322 76.0163 201.028 75.4679 200.818 74.886L200.712 74.6336L200.651 74.9023C200.57 75.5832 200.307 76.2297 199.89 76.7746C199.654 77.0295 199.338 77.1973 198.995 77.2508C198.824 77.2817 198.649 77.2671 198.486 77.2085C198.323 77.1499 198.178 77.0494 198.067 76.9171C197.811 76.555 197.647 76.1357 197.591 75.696C197.512 75.259 197.466 74.8168 197.452 74.3731C197.438 73.5291 197.475 72.6851 197.562 71.8454C197.635 71.0314 197.704 70.2662 197.717 69.5416C197.728 68.8671 197.67 68.1932 197.542 67.5309C197.377 66.5598 196.955 65.6504 196.321 64.8974C196.094 64.6223 195.821 64.3882 195.515 64.2054V64.2054Z" fill="#455A64"/>
<path d="M171.227 71.1654C171.227 71.1654 171.227 71.1654 171.288 71.2183L171.475 71.3648C171.579 71.4452 171.688 71.5186 171.801 71.5846C171.951 71.6817 172.107 71.7688 172.269 71.8451C173.296 72.3428 174.43 72.5778 175.57 72.5289C177.275 72.4561 178.922 71.8905 180.312 70.9008C181.991 69.6819 183.404 68.1335 184.464 66.3502C185.054 65.4221 185.538 64.4697 186.072 63.5905C186.557 62.7325 187.163 61.9485 187.871 61.2623C188.51 60.6466 189.291 60.1991 190.146 59.9597C190.534 59.861 190.935 59.8252 191.334 59.8539C191.703 59.8844 192.066 59.9638 192.413 60.09C193.011 60.3116 193.555 60.6586 194.009 61.1076C194.352 61.4469 194.639 61.8385 194.859 62.2676C195.027 62.6446 195.151 63.0392 195.23 63.4439C195.23 63.4439 195.23 63.4195 195.23 63.3625C195.23 63.3056 195.23 63.2201 195.201 63.1265C195.145 62.8211 195.053 62.5234 194.929 62.2391C194.718 61.7881 194.433 61.3754 194.086 61.018C193.626 60.5497 193.071 60.186 192.458 59.9516C192.1 59.8182 191.727 59.732 191.347 59.6952C190.937 59.6661 190.525 59.7005 190.126 59.7969C189.241 60.0334 188.43 60.4899 187.769 61.1239C187.046 61.8174 186.427 62.6111 185.929 63.4806C185.392 64.3638 184.907 65.3163 184.321 66.2362C183.272 67.9987 181.88 69.5324 180.227 70.7461C178.863 71.7217 177.249 72.2867 175.574 72.3742C174.447 72.4351 173.321 72.2229 172.293 71.7556C171.928 71.5777 171.572 71.3807 171.227 71.1654V71.1654Z" fill="#455A64"/>
<path d="M170.605 67.7262C170.605 67.7262 170.695 67.8076 170.878 67.9297C171.138 68.0953 171.41 68.2422 171.692 68.3693C172.111 68.5604 172.545 68.7156 172.99 68.8333C174.084 69.1219 175.225 69.1869 176.344 69.0246C176.8 68.9582 177.249 68.8548 177.687 68.7153C177.982 68.621 178.269 68.5054 178.546 68.3693C178.653 68.3265 178.753 68.269 178.843 68.1983C178.843 68.1698 178.392 68.3774 177.651 68.6054C177.215 68.7295 176.77 68.8193 176.32 68.874C175.771 68.9371 175.219 68.9562 174.667 68.931C174.119 68.8937 173.574 68.812 173.039 68.6868C172.6 68.5827 172.168 68.4467 171.749 68.2797C171.032 67.9541 170.621 67.6977 170.605 67.7262Z" fill="#455A64"/>
<path d="M189.003 90.4387C189.003 90.4387 186.153 91.2528 185.087 91.6598L185.518 92.8809C185.61 93.1375 185.753 93.3723 185.94 93.5707C186.126 93.7692 186.352 93.9269 186.602 94.0339C186.853 94.1409 187.122 94.195 187.395 94.1927C187.667 94.1904 187.936 94.1318 188.184 94.0206C188.435 93.899 188.658 93.7272 188.84 93.5159C189.16 93.1286 189.32 92.6335 189.287 92.132C189.236 91.5611 189.141 90.995 189.003 90.4387V90.4387Z" fill="#FF9D64"/>
<path d="M185.074 91.6558C185.037 91.5581 186.755 90.9313 188.932 90.2515L189.136 90.1864L189.181 90.4021C189.181 90.4306 189.181 90.4632 189.201 90.4917C189.335 91.0257 189.42 91.5706 189.458 92.1198C189.497 92.6042 189.351 93.0855 189.051 93.4671C188.513 94.1061 187.956 94.1428 187.964 94.1061C187.972 94.0695 188.42 93.8985 188.823 93.2921C189.295 92.71 189.079 91.6639 188.823 90.5487C188.823 90.5161 188.823 90.4835 188.802 90.455L189.051 90.6056C186.881 91.3017 185.11 91.7575 185.074 91.6558Z" fill="#263238"/>
<path d="M165.728 193.719L220.979 193.463L217.93 146.467L217.702 132.457L214.446 107.066L202.101 104.416C202.101 104.416 199.011 110.115 191.111 109.976C183.398 109.862 183.646 106.582 183.646 106.582L170.527 111.507C170.527 111.507 163.339 115.007 162.02 118.398C160.734 121.703 158.247 140.699 158.247 140.699L169.559 140.561L168.553 176.526L165.728 193.719Z" fill="#455A64"/>
<path d="M169.961 123.893C169.981 123.973 169.99 124.055 169.99 124.137C169.99 124.324 170.014 124.544 170.031 124.849C170.059 125.464 170.088 126.359 170.092 127.462C170.092 129.673 170.055 132.721 169.953 136.088C169.851 139.454 169.713 142.502 169.599 144.708C169.538 145.787 169.489 146.674 169.453 147.318C169.428 147.607 169.412 147.843 169.4 148.026C169.398 148.11 169.385 148.193 169.363 148.274C169.357 148.191 169.357 148.108 169.363 148.026C169.363 147.839 169.363 147.619 169.363 147.313L169.444 144.7C169.522 142.47 169.624 139.437 169.738 136.083C169.851 132.73 169.913 129.669 169.937 127.462C169.937 126.359 169.937 125.468 169.937 124.849C169.937 124.56 169.937 124.324 169.937 124.141C169.935 124.058 169.944 123.974 169.961 123.893V123.893Z" fill="#263238"/>
<path d="M214.083 107.408C214.083 107.408 219.639 107.994 222.631 111.885C225.371 115.471 230.646 126.758 230.507 127.035C230.369 127.312 218.064 135.375 218.064 135.375L215.028 129.774L214.083 107.408Z" fill="#455A64"/>
<path d="M216.79 112.952C216.812 113.022 216.823 113.094 216.823 113.168C216.823 113.33 216.851 113.534 216.871 113.782C216.916 114.315 216.961 115.093 217.006 116.049C217.099 117.962 217.173 120.612 217.217 123.535C217.262 126.457 217.307 129.103 217.364 131.02C217.392 131.952 217.413 132.721 217.429 133.287C217.429 133.536 217.429 133.739 217.429 133.902C217.44 133.973 217.44 134.046 217.429 134.118C217.412 134.048 217.403 133.977 217.401 133.906C217.401 133.743 217.368 133.54 217.348 133.291C217.307 132.754 217.262 131.981 217.213 131.024C217.12 129.111 217.046 126.461 217.006 123.539C216.965 120.616 216.912 117.971 216.855 116.053C216.831 115.121 216.806 114.352 216.79 113.786C216.79 113.538 216.79 113.335 216.79 113.172C216.779 113.099 216.779 113.025 216.79 112.952V112.952Z" fill="#263238"/>
<path d="M139.866 161.873C139.866 161.873 141.698 163.094 142.846 162.947C143.994 162.801 147.759 161.873 147.759 161.873C147.759 161.873 147.836 162.207 148.833 162.96C149.83 163.713 155.891 164.71 158.423 164.405C160.955 164.099 165.253 162.487 165.253 162.487L163.963 155.23L152.566 157.029L139.87 159.952V161.873H139.866Z" fill="#824E44"/>
<path d="M143.692 155.959C143.692 155.959 142.695 160.335 143.232 160.949C143.769 161.564 144.453 161.714 144.828 160.872C145.259 159.61 145.623 158.326 145.919 157.025L146.379 155.959C146.379 155.959 145.764 163.172 146.989 163.558C148.214 163.945 148.91 163.558 148.91 163.558C148.91 163.558 151.352 165.398 151.519 162.484C151.694 160.289 152.043 158.111 152.561 155.971L153.131 155.023V156.651C153.131 156.651 151.837 160.485 152.561 161.023C153.286 161.56 154.051 161.946 154.511 161.332C154.971 160.717 157.112 156.224 157.584 154.648C157.584 154.648 159.021 156.724 161.028 156.753C162.603 156.773 163.519 156.097 162.876 155.125C162.232 154.152 160.649 153.321 160.649 153.321L158.577 148.482L153.514 147.297H147.758L143.692 155.959Z" fill="#FFCFB4"/>
<path d="M135.473 152.849C135.473 152.849 140.313 155.731 142.539 156.268C144.766 156.805 156.696 154.685 156.574 153.932C156.452 153.179 154.893 152.507 153.818 152.352C152.744 152.198 149.597 151.66 149.597 151.66H158.039L162.109 154.233C162.109 154.233 163.554 153.651 163.086 152.475C162.838 151.848 159.655 149.361 159.655 149.361L151.921 147.826L138.184 147.289L135.473 152.849Z" fill="#FFBF9D"/>
<path d="M140.009 139.922C140.009 139.922 153.742 142.225 154.051 142.608C154.361 142.991 157.886 146.98 157.886 146.98C157.886 146.98 163.177 148.803 162.493 149.975C161.81 151.148 160.267 150.435 160.267 150.435C160.267 150.435 162.416 153.81 161.419 154.506C160.422 155.202 159.347 154.734 158.57 153.736C157.792 152.739 155.578 149.055 155.578 149.055C155.578 149.055 157.418 156.577 156.498 156.809C155.578 157.041 154.121 157.115 153.506 155.181C153.175 154.203 152.918 153.202 152.737 152.186L149.822 147.354C149.822 147.354 150.974 156.183 150.282 156.907C150.282 156.907 148.516 157.481 147.905 155.946C147.295 154.412 146.444 150.903 146.444 150.903L144.987 147.045L144.836 149.487C144.836 149.487 146.057 154.013 145.296 154.318C144.535 154.624 143.53 154.318 142.992 153.285C142.418 152.251 141.956 151.159 141.613 150.028C141.462 149.43 140.648 147.387 140.648 147.387L137.729 147.004L140.009 139.922Z" fill="#C27461"/>
<path d="M156.92 145.807C157.581 146.566 158.189 147.37 158.74 148.213C159.349 149.014 159.9 149.857 160.388 150.736C159.726 149.98 159.118 149.177 158.569 148.335C157.959 147.533 157.408 146.688 156.92 145.807Z" fill="#7D4336"/>
<path d="M152.341 143.267C152.589 143.493 152.806 143.752 152.984 144.037C153.456 144.689 153.888 145.368 154.278 146.072C154.667 146.777 155.02 147.501 155.337 148.241C155.488 148.542 155.602 148.858 155.678 149.186C155.491 148.909 155.331 148.615 155.202 148.307C154.925 147.753 154.547 146.996 154.091 146.178C153.635 145.36 153.196 144.635 152.87 144.118C152.67 143.85 152.493 143.565 152.341 143.267V143.267Z" fill="#7D4336"/>
<path d="M148.299 143.674C148.299 143.654 148.527 143.772 148.783 144.061C149.113 144.441 149.361 144.884 149.512 145.364C149.665 145.834 149.766 146.32 149.813 146.813C149.849 147.016 149.849 147.224 149.813 147.427C149.728 147.24 149.673 147.041 149.65 146.837C149.562 146.361 149.445 145.891 149.3 145.429C149.152 144.974 148.935 144.544 148.657 144.155C148.449 143.858 148.299 143.703 148.299 143.674Z" fill="#7D4336"/>
<path d="M143.415 144.094C143.415 144.069 143.626 144.134 143.907 144.33C144.27 144.593 144.563 144.941 144.762 145.343C144.962 145.746 145.06 146.192 145.047 146.642C145.061 146.827 145.023 147.014 144.937 147.179C144.966 146.578 144.842 145.979 144.576 145.439C144.309 144.899 143.91 144.436 143.415 144.094V144.094Z" fill="#7D4336"/>
<path opacity="0.3" d="M168.912 164.128C169.888 164.128 207.201 161.388 207.201 161.388L220.344 158.669L217.088 144.098L168.989 159.565L168.912 164.128Z" fill="black"/>
<path d="M163.961 155.226L198.502 147.289C198.502 147.289 229.949 128.972 230.429 128.663C230.91 128.354 227.987 147.289 227.987 147.289C227.987 147.289 207.957 157.843 202.189 159.211C199.047 159.956 164.205 162.874 164.205 162.874L163.961 155.226Z" fill="#824E44"/>
<path d="M248.999 79.8519C251.128 77.5563 256.326 77.9552 257.547 79.4897C258.474 79.067 259.528 79.0172 260.49 79.3506C261.453 79.6841 262.25 80.3752 262.716 81.2806L268.236 82.5424C269.176 82.7581 270.161 82.9942 270.882 83.6414C271.602 84.2886 271.928 85.473 271.321 86.2261C273.263 86.7511 273.999 89.6614 272.542 91.0453C272.726 91.2636 272.864 91.5172 272.947 91.7906C273.03 92.0639 273.056 92.3513 273.024 92.6351C272.992 92.919 272.903 93.1933 272.761 93.4413C272.619 93.6894 272.429 93.9059 272.2 94.0777C273.712 95.9262 274.896 98.0202 275.701 100.269C276.039 101.209 276.307 102.255 275.949 103.187C275.591 104.119 274.358 104.75 273.556 104.16C273.824 104.546 273.976 105.002 273.991 105.472C274.007 105.942 273.887 106.406 273.645 106.81C274.581 106.842 274.846 108.291 274.195 108.963C273.544 109.635 272.502 109.7 271.565 109.667C270.629 109.634 269.616 109.578 268.842 110.107C268.85 110.221 268.88 110.333 268.932 110.435C268.984 110.537 269.056 110.627 269.144 110.701C270.735 112.024 271.179 114.279 269.958 115.952C269.844 116.106 269.738 116.249 269.648 116.379C269.099 117.144 267.747 117.832 266.909 118.26C264.784 119.342 263.526 119.122 261.162 119.44C261.793 120.97 257.905 124.324 253.566 120.95C244.766 123.205 238.453 124.019 229.385 123.97C228.09 123.97 226.535 123.771 225.974 122.607C224.924 122.875 223.792 122.375 223.027 121.609C222.304 120.797 221.725 119.866 221.317 118.858C220.202 118.522 219.218 117.85 218.5 116.933C217.783 116.017 217.366 114.9 217.308 113.737C216.556 113.131 215.939 112.375 215.496 111.517C215.052 110.66 214.792 109.719 214.731 108.755C212.558 108.071 211.386 105.234 212.44 103.216C212.935 100.543 213.869 97.9716 215.204 95.6041C213.726 95.2703 213.168 93.2636 213.812 91.8797C214.455 90.4958 215.79 89.6166 217.068 88.8148C215.957 89.0956 215.004 87.6954 215.277 86.5802C215.55 85.4649 216.563 84.7078 217.556 84.138C219.009 83.286 220.558 82.6122 222.172 82.1313C222.717 80.1857 225.237 77.9836 227.056 77.137C234.464 73.722 239.642 72.8876 248.971 79.8641" fill="#263238"/>
<path d="M228.326 93.7071C228.965 88.6355 232.726 82.5951 237.765 83.4499L253.358 88.436C254.097 88.5618 254.761 88.9596 255.221 89.551C255.68 90.1425 255.902 90.8846 255.841 91.6312L253.195 125.541C253.029 127.683 252.128 129.701 250.645 131.255C249.161 132.809 247.187 133.803 245.055 134.068V134.068C243.729 134.232 242.384 134.109 241.11 133.707C239.836 133.305 238.663 132.635 237.671 131.741C236.678 130.846 235.89 129.749 235.358 128.524C234.827 127.298 234.565 125.973 234.59 124.637C234.635 122.305 234.659 120.567 234.659 120.567C234.659 120.567 228.22 119.086 227.402 110.513C226.979 106.248 227.618 99.3404 228.326 93.7071Z" fill="#824E44"/>
<path d="M231.176 100.598C231.156 100.881 231.247 101.161 231.43 101.378C231.614 101.595 231.874 101.731 232.157 101.758C232.295 101.778 232.435 101.769 232.57 101.734C232.704 101.698 232.831 101.636 232.941 101.551C233.051 101.466 233.144 101.36 233.212 101.239C233.281 101.118 233.325 100.985 233.342 100.846C233.36 100.563 233.268 100.284 233.085 100.067C232.902 99.8501 232.643 99.7123 232.361 99.6824C232.222 99.663 232.082 99.6715 231.947 99.7072C231.812 99.743 231.686 99.8054 231.575 99.8908C231.465 99.9761 231.373 100.083 231.304 100.204C231.236 100.326 231.192 100.46 231.176 100.598Z" fill="#263238"/>
<path d="M229.604 97.399C229.73 97.5496 230.593 96.9919 231.765 97.0652C232.937 97.1385 233.755 97.7816 233.894 97.6473C233.959 97.5862 233.837 97.3216 233.487 97.0245C233.001 96.6425 232.41 96.4193 231.794 96.3855C231.185 96.3467 230.579 96.502 230.064 96.8291C229.681 97.0815 229.543 97.3298 229.604 97.399Z" fill="#263238"/>
<path d="M241.916 101.046C241.895 101.329 241.987 101.61 242.17 101.827C242.353 102.045 242.614 102.182 242.897 102.21C243.035 102.229 243.175 102.221 243.31 102.185C243.444 102.15 243.57 102.088 243.681 102.003C243.791 101.918 243.883 101.812 243.952 101.691C244.021 101.57 244.065 101.436 244.081 101.298C244.102 101.014 244.011 100.734 243.827 100.517C243.644 100.299 243.383 100.162 243.1 100.134C242.963 100.114 242.822 100.123 242.688 100.158C242.553 100.194 242.427 100.256 242.317 100.341C242.206 100.426 242.114 100.532 242.045 100.653C241.976 100.774 241.932 100.907 241.916 101.046V101.046Z" fill="#263238"/>
<path d="M241.102 98.3309C241.228 98.4815 242.095 97.9239 243.264 98.0012C244.432 98.0786 245.258 98.7136 245.392 98.5792C245.457 98.5182 245.339 98.2536 244.985 97.9605C244.501 97.5766 243.909 97.3533 243.292 97.3215C242.683 97.279 242.077 97.4331 241.562 97.7611C241.18 98.0175 241.041 98.2658 241.102 98.3309Z" fill="#263238"/>
<path d="M236.312 106.757C236.312 106.687 235.604 106.516 234.432 106.293C234.135 106.244 233.858 106.166 233.817 105.959C233.812 105.648 233.902 105.343 234.073 105.084L235.099 102.861C236.528 99.6987 237.582 97.0855 237.456 97.0285C237.33 96.9715 236.064 99.4952 234.635 102.658L233.646 104.896C233.435 105.246 233.355 105.658 233.418 106.061C233.454 106.169 233.514 106.268 233.595 106.349C233.675 106.431 233.774 106.492 233.882 106.529C234.045 106.586 234.215 106.62 234.387 106.63C235.567 106.769 236.304 106.822 236.312 106.757Z" fill="#263238"/>
<path d="M234.642 120.563C238.635 120.873 242.636 120.069 246.198 118.239C246.198 118.239 243.076 123.897 234.634 122.574L234.642 120.563Z" fill="#5B342F"/>
<path d="M240.887 93.4914C240.981 93.817 242.162 93.7397 243.525 93.988C244.889 94.2363 245.967 94.684 246.179 94.395C246.268 94.2607 246.093 93.9514 245.662 93.6135C245.087 93.1989 244.426 92.9205 243.728 92.7992C243.03 92.6779 242.313 92.717 241.632 92.9134C241.103 93.0844 240.847 93.3245 240.887 93.4914Z" fill="#263238"/>
<path d="M230.268 93.3935C230.459 93.6703 231.281 93.4464 232.254 93.4952C233.227 93.5441 234.033 93.7842 234.24 93.5156C234.33 93.3853 234.216 93.1086 233.874 92.8399C233.411 92.5076 232.859 92.3205 232.29 92.3024C231.72 92.2842 231.158 92.4359 230.675 92.7382C230.316 92.9905 230.186 93.2592 230.268 93.3935Z" fill="#263238"/>
<path d="M224.438 97.7207C224.496 96.3754 225.016 95.0913 225.912 94.0859C226.421 93.5608 227.06 93.1701 227.511 92.5962C228.488 91.3547 228.387 89.6085 228.818 88.0903C229.106 87.1111 229.624 86.2149 230.328 85.4764C231.033 84.7379 231.903 84.1786 232.868 83.845C234.472 83.3036 236.275 83.4094 237.785 82.6239C238.9 82.054 239.759 81.0527 240.907 80.5521C243.141 79.5752 245.694 80.7597 247.765 82.0418C248.172 83.7106 247.073 85.1312 246.035 86.4948C245.511 87.1755 244.844 87.7343 244.083 88.1327C243.321 88.5312 242.482 88.7597 241.623 88.8026C240.296 88.8596 238.75 88.5299 237.801 89.462C236.853 90.3941 237.154 92.2014 236.324 93.3288C235.143 94.957 232.53 94.2772 230.788 95.2541C229.445 96.0112 228.855 97.5945 228.159 98.9744C227.463 100.354 226.282 101.779 224.74 101.681C224.487 100.377 224.386 99.048 224.438 97.7207V97.7207Z" fill="#263238"/>
<path d="M244.399 85.0294C248.295 85.042 252.151 85.8077 255.756 87.2844C256.822 87.724 257.929 88.2775 258.523 89.2666C259.049 90.1377 259.097 91.2082 259.065 92.2217C258.971 95.4047 257.624 99.2756 256.358 102.198L252.345 104.506C249.296 103.728 250.794 98.4696 250.989 95.8239C249.929 95.3217 249.033 94.5311 248.401 93.5427C247.77 92.5543 247.43 91.4081 247.42 90.2354C246.557 89.6511 245.837 88.8794 245.314 87.978C244.791 87.0765 244.478 86.0686 244.399 85.0294Z" fill="#263238"/>
<path d="M252.405 103.366C252.556 101.546 254.798 101.233 256.345 102.198C257.196 102.727 257.823 103.757 257.68 105.686C257.273 110.835 252.206 109.386 252.206 109.239C252.206 109.093 252.226 105.495 252.405 103.366Z" fill="#824E44"/>
<path d="M253.927 107.404C253.952 107.404 254.013 107.477 254.159 107.554C254.261 107.609 254.372 107.642 254.486 107.653C254.601 107.665 254.717 107.653 254.827 107.62C255.384 107.461 255.909 106.63 256.003 105.707C256.049 105.266 255.997 104.821 255.848 104.404C255.812 104.24 255.736 104.088 255.627 103.959C255.519 103.831 255.381 103.731 255.226 103.667C255.124 103.633 255.014 103.635 254.914 103.673C254.814 103.711 254.73 103.782 254.676 103.875C254.599 104.013 254.623 104.119 254.595 104.127C254.566 104.135 254.489 104.03 254.546 103.822C254.586 103.697 254.666 103.588 254.774 103.513C254.924 103.418 255.104 103.385 255.278 103.419C255.487 103.477 255.677 103.588 255.831 103.741C255.985 103.893 256.097 104.082 256.158 104.29C256.344 104.752 256.413 105.252 256.361 105.747C256.251 106.781 255.645 107.713 254.884 107.872C254.742 107.902 254.595 107.9 254.454 107.866C254.313 107.831 254.181 107.765 254.07 107.672C253.927 107.53 253.907 107.412 253.927 107.404Z" fill="#5B342F"/>
<path d="M256.399 110.68C256.671 110.695 256.943 110.683 257.213 110.644C257.527 110.605 257.833 110.518 258.12 110.387L258.059 110.355C258.122 110.795 258.298 111.212 258.57 111.564C258.842 111.916 259.201 112.191 259.611 112.362C260.022 112.533 260.47 112.595 260.912 112.54C261.353 112.486 261.773 112.318 262.13 112.052H262.04C262.194 112.288 262.433 112.454 262.708 112.516C262.987 112.578 263.278 112.559 263.546 112.459C263.825 112.361 264.064 112.174 264.226 111.926C264.387 111.673 264.482 111.383 264.503 111.083C264.533 110.463 264.346 109.851 263.973 109.353C263.584 108.852 263.136 108.4 262.638 108.006V108.128C262.856 107.995 263.044 107.818 263.188 107.607C263.333 107.397 263.431 107.158 263.477 106.907C263.587 106.399 263.544 105.869 263.355 105.385C263.151 104.897 262.852 104.454 262.476 104.082C262.093 103.705 261.685 103.354 261.255 103.032V103.146C261.443 102.95 261.587 102.716 261.679 102.46C261.771 102.204 261.808 101.932 261.788 101.661C261.758 101.103 261.566 100.567 261.234 100.118C260.587 99.2631 259.63 98.7788 258.751 98.3229L258.792 98.4124C258.936 97.8761 258.947 97.3129 258.824 96.7713C258.702 96.2298 258.449 95.7262 258.089 95.3039C257.728 94.8817 257.27 94.5535 256.755 94.3476C256.239 94.1418 255.681 94.0644 255.129 94.1223L255.206 94.2118C255.297 93.77 255.286 93.3132 255.173 92.8764C255.06 92.4396 254.849 92.0346 254.555 91.6923C254.296 91.3624 253.969 91.0926 253.596 90.9015C253.223 90.7103 252.812 90.6024 252.393 90.5852L252.459 90.6503C252.455 90.2113 252.351 89.7789 252.154 89.3861C251.958 88.9933 251.675 88.6503 251.327 88.3831C251.032 88.1371 250.69 87.9539 250.322 87.8448C249.954 87.7356 249.567 87.7027 249.186 87.7482L249.243 87.8011C249.219 87.3306 249.08 86.8733 248.836 86.4701C248.636 86.1109 248.377 85.7877 248.071 85.5136C247.592 85.0616 246.976 84.7823 246.32 84.7198H246.129C246.068 84.7198 246.007 84.7198 245.946 84.7198C245.837 84.7238 245.728 84.7347 245.62 84.7524C245.451 84.7814 245.285 84.825 245.124 84.8827L244.835 85.0007L244.741 85.0414L244.843 85.0129L245.136 84.9071C245.297 84.8576 245.462 84.8195 245.629 84.7931C245.735 84.7763 245.842 84.7681 245.95 84.7687H246.129L246.316 84.789C246.956 84.8572 247.555 85.1365 248.018 85.5828C248.316 85.8534 248.567 86.1727 248.759 86.5271C248.983 86.9184 249.111 87.3583 249.129 87.8092V87.8703H249.186C249.554 87.8292 249.926 87.8632 250.28 87.9703C250.634 88.0773 250.962 88.2552 251.246 88.493C251.576 88.7511 251.845 89.0806 252.03 89.4571C252.215 89.8335 252.313 90.247 252.316 90.6666V90.7317H252.381C252.793 90.7626 253.193 90.8797 253.556 91.0755C253.919 91.2713 254.237 91.5413 254.489 91.8681C254.741 92.1948 254.921 92.5709 255.018 92.9719C255.115 93.3729 255.126 93.7899 255.051 94.1956L255.027 94.2973H255.129C255.657 94.2353 256.192 94.3035 256.688 94.4961C257.184 94.6887 257.625 94.9997 257.972 95.4021C258.32 95.8044 258.564 96.2858 258.683 96.8042C258.802 97.3226 258.791 97.8622 258.654 98.3758V98.4368L258.706 98.4653C259.586 98.9212 260.518 99.4015 261.149 100.22C261.465 100.641 261.648 101.147 261.674 101.673C261.692 101.922 261.659 102.173 261.574 102.408C261.49 102.644 261.358 102.859 261.185 103.04L261.12 103.101L261.189 103.154C262.003 103.814 262.854 104.51 263.225 105.446C263.402 105.902 263.441 106.4 263.339 106.879C263.296 107.107 263.205 107.324 263.074 107.515C262.942 107.707 262.771 107.868 262.573 107.99L262.484 108.043L262.561 108.112C263.053 108.494 263.494 108.935 263.876 109.427C264.233 109.892 264.414 110.469 264.389 111.055C264.385 111.328 264.301 111.595 264.147 111.821C263.993 112.047 263.775 112.222 263.522 112.325C263.289 112.427 263.029 112.448 262.783 112.385C262.538 112.321 262.32 112.177 262.166 111.975L262.13 111.918L262.077 111.954C261.704 112.225 261.264 112.388 260.805 112.424C260.346 112.46 259.886 112.368 259.476 112.158C259.136 111.974 258.842 111.715 258.618 111.401C258.393 111.086 258.244 110.724 258.181 110.343V110.281L258.129 110.31C257.85 110.439 257.554 110.526 257.249 110.566C256.98 110.61 256.708 110.626 256.435 110.615C256.004 110.615 255.577 110.525 255.182 110.351C254.933 110.252 254.726 110.071 254.595 109.838C254.514 109.675 254.502 109.577 254.494 109.581V109.651C254.508 109.719 254.531 109.784 254.563 109.846C254.688 110.091 254.896 110.284 255.149 110.391" fill="#455A64"/>
<path d="M274.187 104.404C274.265 104.309 274.332 104.205 274.387 104.095C274.601 103.684 274.704 103.225 274.687 102.762C274.669 102.3 274.53 101.85 274.285 101.457C274.079 101.136 273.808 100.862 273.49 100.651C273.172 100.441 272.813 100.3 272.437 100.236L272.482 100.297C272.673 99.4268 272.528 98.5164 272.075 97.749C271.828 97.3184 271.49 96.9463 271.086 96.6581C270.642 96.3853 270.173 96.155 269.686 95.9703C269.446 95.8654 269.221 95.7285 269.018 95.5632C268.82 95.385 268.663 95.1655 268.558 94.9201C268.338 94.4235 268.277 93.8374 267.997 93.292C267.7 92.7405 267.244 92.2907 266.689 92.0005C266.134 91.7103 265.505 91.5931 264.883 91.6639L264.972 91.7534C265.072 91.1303 265.027 90.4927 264.842 89.8897C264.656 89.2866 264.335 88.734 263.902 88.2745C263.47 87.815 262.938 87.4608 262.347 87.239C261.757 87.0172 261.123 86.9338 260.495 86.9952L260.58 87.0807C260.666 86.3946 260.553 85.6984 260.255 85.0742C259.958 84.4501 259.488 83.9239 258.902 83.5578C258.316 83.1916 257.637 83.0007 256.945 83.0076C256.254 83.0144 255.579 83.2188 255 83.5965H255.081C254.578 83.0958 253.97 82.711 253.303 82.469C252.71 82.2377 252.091 82.0831 251.459 82.009C250.439 81.8794 249.404 81.9318 248.402 82.1637C247.758 82.3053 247.141 82.55 246.574 82.8882C246.424 82.9757 246.281 83.0751 246.147 83.1854C246.1 83.219 246.055 83.2557 246.013 83.2953C246.013 83.2953 246.204 83.1528 246.595 82.9208C247.164 82.6009 247.779 82.3702 248.418 82.237C249.413 82.0198 250.438 81.9785 251.447 82.1149C252.067 82.194 252.676 82.3499 253.258 82.5789C253.895 82.8354 254.469 83.2254 254.943 83.7227L254.98 83.7634L255.028 83.7349C255.585 83.374 256.233 83.1797 256.897 83.1746C257.56 83.1695 258.211 83.354 258.773 83.7063C259.336 84.0585 259.786 84.564 260.07 85.1632C260.355 85.7624 260.463 86.4305 260.381 87.0888V87.1865H260.479C261.084 87.1261 261.695 87.2053 262.265 87.4181C262.834 87.6308 263.348 87.9714 263.765 88.4137C264.183 88.856 264.493 89.3882 264.673 89.9693C264.853 90.5503 264.896 91.1649 264.801 91.7656V91.8674H264.907C265.496 91.7994 266.092 91.9083 266.619 92.1801C267.146 92.4519 267.58 92.8744 267.866 93.3937C268.131 93.8944 268.196 94.4765 268.428 95.0015C268.542 95.2661 268.713 95.5024 268.929 95.6935C269.141 95.8618 269.377 95.9989 269.629 96.1005C270.11 96.2816 270.573 96.5064 271.013 96.7721C271.404 97.0472 271.73 97.4042 271.969 97.8182C272.418 98.5568 272.571 99.4381 272.397 100.285V100.338H272.449C272.813 100.397 273.16 100.531 273.469 100.731C273.778 100.932 274.042 101.194 274.244 101.502C274.548 101.969 274.691 102.522 274.651 103.077C274.63 103.426 274.542 103.767 274.391 104.082C274.257 104.298 274.183 104.4 274.187 104.404Z" fill="#455A64"/>
<path d="M224.878 104.965C224.91 104.903 224.929 104.835 224.934 104.765C224.939 104.695 224.93 104.624 224.906 104.558C224.846 104.391 224.744 104.243 224.609 104.127C224.424 103.975 224.209 103.862 223.978 103.797C223.691 103.72 223.417 103.602 223.164 103.447C222.891 103.235 222.693 102.941 222.598 102.609C222.488 102.226 222.451 101.825 222.488 101.428C222.513 101.021 222.59 100.553 222.598 100.073C222.623 99.0959 222.228 98.0946 221.992 97.016C221.868 96.4582 221.854 95.8817 221.951 95.3187C221.999 95.025 222.11 94.7452 222.276 94.498C222.442 94.2508 222.658 94.0421 222.912 93.8859C223.491 93.6182 224.1 93.4227 224.727 93.3038C225.058 93.2209 225.373 93.0833 225.659 92.8968C225.947 92.6868 226.177 92.4066 226.327 92.0828C226.588 91.4261 226.78 90.744 226.901 90.0476C226.976 89.7065 227.103 89.3787 227.275 89.0748C227.453 88.7787 227.723 88.5497 228.044 88.4235C228.511 88.3045 228.991 88.247 229.473 88.2526C229.724 88.2379 229.97 88.1801 230.202 88.0816C230.432 87.9774 230.632 87.8146 230.78 87.6095C231.028 87.2027 231.217 86.7628 231.341 86.3029C231.478 85.8762 231.704 85.4835 232.005 85.151C232.29 84.8318 232.639 84.5751 233.028 84.3972C233.418 84.2193 233.84 84.1239 234.268 84.1171C235.069 84.1048 235.845 84.3956 236.441 84.9312L236.511 84.9922L236.551 84.9108C236.853 84.2823 237.286 83.7257 237.821 83.2785C238.356 82.8313 238.981 82.5038 239.653 82.318C240.215 82.1678 240.801 82.1277 241.379 82.2C241.869 82.2483 242.347 82.3863 242.787 82.607C243.408 82.922 243.923 83.4115 244.269 84.0154C244.364 84.1713 244.447 84.3347 244.517 84.5038L244.578 84.63V84.6748C244.578 84.6748 244.578 84.6748 244.578 84.63L244.529 84.4957C244.468 84.3217 244.39 84.1541 244.297 83.995C243.958 83.3728 243.442 82.8645 242.816 82.5338C242.368 82.3025 241.883 82.1536 241.383 82.0942C240.793 82.0135 240.193 82.0495 239.616 82.2C238.927 82.3866 238.285 82.7185 237.734 83.1734C237.183 83.6283 236.735 84.1957 236.421 84.8376H236.527C235.907 84.2728 235.098 83.9619 234.26 83.9665C233.812 83.9727 233.369 84.0713 232.961 84.2562C232.553 84.4411 232.187 84.7083 231.887 85.0411C231.568 85.3927 231.329 85.8093 231.187 86.2622C231.065 86.707 230.883 87.133 230.645 87.5281C230.503 87.708 230.322 87.8532 230.115 87.9526C229.909 88.0521 229.682 88.1031 229.453 88.102C228.957 88.1005 228.464 88.1607 227.983 88.2811C227.629 88.4226 227.331 88.6755 227.133 89.0015C226.945 89.316 226.808 89.658 226.726 90.015C226.606 90.6958 226.418 91.3628 226.164 92.0054C226.025 92.304 225.812 92.562 225.545 92.7544C225.275 92.9375 224.977 93.075 224.662 93.1614C224.023 93.2817 223.402 93.4827 222.814 93.7597C222.533 93.9221 222.297 94.1514 222.126 94.4273C221.965 94.693 221.852 94.9851 221.792 95.2902C221.692 95.871 221.708 96.4661 221.841 97.0404C222.085 98.1394 222.48 99.1203 222.46 100.073C222.46 100.541 222.387 100.993 222.366 101.424C222.327 101.836 222.37 102.251 222.492 102.645C222.593 102.995 222.806 103.301 223.099 103.516C223.351 103.672 223.626 103.788 223.913 103.862C224.138 103.923 224.348 104.028 224.532 104.172C224.663 104.28 224.764 104.42 224.825 104.579C224.883 104.699 224.901 104.834 224.878 104.965V104.965Z" fill="#455A64"/>
<path d="M215.011 96.8166C215.011 96.8166 215.032 96.784 215.064 96.7189L215.211 96.434L215.764 95.3228C216.004 94.8466 216.277 94.2442 216.66 93.5888C217.064 92.8298 217.673 92.1994 218.418 91.7694C218.825 91.5496 219.322 91.4071 219.81 91.1996C220.064 91.0953 220.304 90.9585 220.522 90.7925C220.752 90.6178 220.937 90.3902 221.06 90.1291C221.312 89.5999 221.328 88.9934 221.532 88.4439C221.627 88.1659 221.805 87.9233 222.041 87.7479C222.297 87.58 222.579 87.4549 222.875 87.3775C223.191 87.2953 223.499 87.1836 223.795 87.0438C224.102 86.885 224.353 86.6346 224.511 86.3274C224.829 85.7046 224.845 85.0004 224.984 84.337C225.038 84.0026 225.16 83.6827 225.342 83.3967C225.536 83.1242 225.827 82.9363 226.156 82.8717C226.84 82.7414 227.564 82.9897 228.317 82.8717C228.696 82.8119 229.047 82.6338 229.318 82.3629C229.573 82.0999 229.793 81.8059 229.974 81.4878C230.165 81.1866 230.344 80.8813 230.556 80.6086C230.756 80.3364 231.02 80.1182 231.325 79.9736C231.944 79.7009 232.64 79.8678 233.271 80.0224C233.9 80.2308 234.566 80.3002 235.224 80.226C235.837 80.0822 236.419 79.83 236.942 79.4811C237.424 79.1597 237.937 78.887 238.473 78.667C239.466 78.3508 240.531 78.3353 241.533 78.6223C242.363 78.8553 243.13 79.2727 243.776 79.8433C244.258 80.278 244.67 80.7847 244.997 81.3453C245.202 81.701 245.375 82.0742 245.514 82.4606L245.628 82.7618C245.64 82.7971 245.655 82.8312 245.673 82.8635C245.667 82.8274 245.658 82.7919 245.644 82.7577C245.62 82.6804 245.587 82.5786 245.543 82.4484C245.416 82.0548 245.251 81.6745 245.05 81.3127C244.726 80.7405 244.314 80.2227 243.829 79.7782C243.176 79.1946 242.397 78.7685 241.554 78.5327C240.529 78.2329 239.439 78.2429 238.42 78.5612C237.875 78.78 237.355 79.0527 236.865 79.3753C236.354 79.712 235.788 79.9559 235.192 80.0957C234.554 80.1643 233.908 80.0949 233.299 79.8922C232.971 79.801 232.636 79.7357 232.298 79.6968C231.941 79.6499 231.579 79.7009 231.249 79.8443C230.919 79.9877 230.634 80.2181 230.426 80.5109C230.213 80.7972 230.016 81.0948 229.835 81.4023C229.658 81.7086 229.445 81.9928 229.2 82.2489C228.953 82.4954 228.634 82.6578 228.289 82.7129C227.58 82.8188 226.86 82.5664 226.119 82.7129C225.756 82.7919 225.437 83.0076 225.228 83.3153C225.036 83.6193 224.906 83.9582 224.845 84.3126C224.707 84.9964 224.686 85.6883 224.389 86.2663C224.246 86.5474 224.018 86.7766 223.738 86.9216C223.452 87.059 223.154 87.1681 222.847 87.2473C222.534 87.3327 222.238 87.4703 221.971 87.6543C221.714 87.8459 221.521 88.1114 221.418 88.4155C221.206 88.9975 221.19 89.5958 220.954 90.0965C220.702 90.5691 220.28 90.9285 219.773 91.1019C219.297 91.3095 218.809 91.456 218.377 91.6839C217.62 92.1275 217.003 92.7767 216.599 93.5563C216.216 94.2238 215.951 94.8262 215.719 95.3106C215.487 95.795 215.312 96.1654 215.194 96.4299C215.141 96.5561 215.097 96.6497 215.064 96.723C215.043 96.7521 215.025 96.7835 215.011 96.8166V96.8166Z" fill="#455A64"/>
<path d="M220.588 91.5172C220.559 91.5048 220.527 91.4979 220.495 91.4969C220.399 91.4928 220.304 91.5124 220.218 91.5538C220.062 91.6491 219.932 91.7815 219.84 91.9391C219.747 92.0968 219.696 92.2749 219.689 92.4575C219.685 92.7185 219.718 92.9788 219.787 93.2308C219.869 93.522 219.909 93.8237 219.905 94.1263C219.862 94.4685 219.732 94.7939 219.526 95.0706C219.322 95.3799 219.062 95.6771 218.85 96.0434C218.727 96.233 218.65 96.4485 218.624 96.673C218.598 96.8975 218.624 97.125 218.7 97.3378C218.854 97.7814 219.168 98.1518 219.318 98.6036C219.444 99.0799 219.385 99.5862 219.152 100.02C218.944 100.484 218.647 100.936 218.443 101.457C218.332 101.721 218.271 102.004 218.264 102.291C218.262 102.586 218.323 102.877 218.443 103.146C218.718 103.67 219.038 104.168 219.4 104.636C219.769 105.095 219.953 105.676 219.917 106.264C219.767 106.863 219.547 107.442 219.261 107.99C219.138 108.29 219.068 108.61 219.054 108.934C219.058 109.258 219.136 109.577 219.282 109.866C219.585 110.4 219.95 110.896 220.369 111.344C220.758 111.77 221.056 112.271 221.244 112.817C221.375 113.371 221.544 113.914 221.748 114.445C221.869 114.701 222.044 114.927 222.261 115.109C222.481 115.269 222.726 115.392 222.986 115.471C223.227 115.545 223.464 115.635 223.694 115.74C223.911 115.844 224.11 115.982 224.284 116.147C224.603 116.481 224.877 116.856 225.098 117.262C225.326 117.649 225.542 118.031 225.782 118.373C226.211 119.003 226.832 119.477 227.553 119.725C228.092 119.914 228.666 119.979 229.234 119.916C229.591 119.877 229.94 119.781 230.268 119.631C230.38 119.579 230.489 119.519 230.593 119.452C230.167 119.669 229.705 119.807 229.23 119.859C228.678 119.908 228.122 119.836 227.602 119.647C226.902 119.399 226.301 118.932 225.888 118.316C225.656 117.978 225.448 117.596 225.216 117.205C224.99 116.786 224.708 116.4 224.378 116.057C224.193 115.881 223.985 115.732 223.759 115.614C223.523 115.507 223.281 115.414 223.035 115.337C222.79 115.262 222.559 115.145 222.355 114.991C222.154 114.825 221.993 114.616 221.883 114.38C221.684 113.86 221.519 113.327 221.39 112.785C221.199 112.219 220.892 111.7 220.491 111.258C220.081 110.818 219.723 110.331 219.424 109.809C219.291 109.541 219.22 109.246 219.217 108.946C219.226 108.641 219.292 108.34 219.412 108.059C219.703 107.5 219.926 106.909 220.076 106.297C220.116 105.979 220.076 105.656 219.962 105.356C219.851 105.069 219.706 104.795 219.53 104.542C219.173 104.085 218.857 103.597 218.586 103.085C218.471 102.829 218.413 102.551 218.415 102.271C218.419 102.001 218.475 101.734 218.582 101.485C218.777 100.985 219.07 100.533 219.282 100.049C219.529 99.5851 219.587 99.044 219.445 98.5385C219.278 98.0582 218.964 97.6878 218.818 97.2726C218.746 97.0766 218.72 96.8666 218.743 96.6591C218.765 96.4515 218.836 96.2519 218.948 96.076C219.152 95.7219 219.408 95.4166 219.611 95.1032C219.824 94.8098 219.958 94.4662 219.998 94.1059C219.999 93.7957 219.953 93.4871 219.864 93.1901C219.793 92.9454 219.756 92.692 219.754 92.4371C219.757 92.2623 219.803 92.0909 219.888 91.9377C219.972 91.7846 220.092 91.6542 220.238 91.5579C220.348 91.5098 220.47 91.4956 220.588 91.5172V91.5172Z" fill="#455A64"/>
<path d="M274.072 104.233C274.208 104.238 274.344 104.227 274.479 104.201C274.871 104.13 275.244 103.977 275.573 103.753C276.107 103.399 276.501 102.869 276.685 102.255C276.806 101.846 276.836 101.414 276.771 100.992C276.706 100.57 276.549 100.167 276.31 99.8129C276.008 99.4213 275.669 99.06 275.297 98.7343C274.896 98.4027 274.575 97.9854 274.356 97.5132C274.19 96.9756 274.229 96.3954 274.466 95.8851C274.674 95.3356 274.983 94.8024 275.183 94.1959C275.403 93.5265 275.481 92.8185 275.412 92.1172C275.343 91.4158 275.127 90.7368 274.78 90.1235C274.433 89.5103 273.961 88.9764 273.395 88.5562C272.83 88.136 272.182 87.8387 271.495 87.6834L271.54 87.8014C271.783 87.4723 271.943 87.0899 272.008 86.6862C272.067 86.2792 272.048 85.8647 271.951 85.4651C271.857 85.0578 271.689 84.6714 271.454 84.3254C271.219 83.9752 270.93 83.6635 270.6 83.4014C269.604 82.6686 268.452 82.178 267.233 81.9686C266.095 81.7319 264.928 81.6606 263.77 81.757L263.851 81.8303C263.84 81.1632 263.646 80.5119 263.292 79.9467C262.938 79.3814 262.436 78.9237 261.84 78.6228C261.281 78.3461 260.661 78.2145 260.037 78.2402C259.453 78.2924 258.88 78.4295 258.336 78.6473C258.072 78.7352 257.799 78.7912 257.522 78.8141C257.26 78.8323 256.998 78.8005 256.748 78.7205C256.272 78.5456 255.818 78.3147 255.397 78.0326C254.995 77.7708 254.562 77.5615 254.107 77.4099C253.684 77.2809 253.245 77.2151 252.804 77.2145C252.053 77.2044 251.312 77.391 250.655 77.7559C250.167 78.0287 249.735 78.3904 249.381 78.8223C249.159 79.0912 248.972 79.3865 248.823 79.7015C248.77 79.8076 248.725 79.9179 248.689 80.0312C248.689 80.0312 248.738 79.9213 248.848 79.7096C249.004 79.4035 249.195 79.1167 249.418 78.8548C249.775 78.4347 250.207 78.0842 250.692 77.821C251.34 77.4705 252.067 77.2938 252.804 77.3081C253.235 77.3137 253.663 77.3823 254.074 77.5116C254.52 77.6612 254.944 77.8692 255.336 78.1303C255.766 78.4185 256.227 78.6561 256.712 78.8386C256.975 78.9214 257.25 78.9558 257.526 78.9403C257.803 78.9162 258.076 78.8588 258.34 78.7694C258.872 78.5542 259.433 78.4171 260.004 78.3623C260.605 78.3394 261.201 78.4682 261.738 78.7368C262.31 79.0258 262.792 79.4657 263.131 80.0088C263.47 80.552 263.655 81.1777 263.664 81.818V81.8995H263.745C264.889 81.8084 266.041 81.8811 267.164 82.1152C268.358 82.3235 269.487 82.804 270.465 83.5194C270.779 83.773 271.054 84.072 271.279 84.4068C271.503 84.7385 271.664 85.1081 271.755 85.4976C271.848 85.88 271.866 86.2766 271.808 86.6658C271.748 87.0452 271.599 87.405 271.373 87.7159L271.3 87.8096L271.418 87.8381C272.084 87.9886 272.713 88.2766 273.262 88.6835C273.811 89.0905 274.269 89.6075 274.608 90.2016C274.946 90.7957 275.156 91.4537 275.226 92.1338C275.296 92.8138 275.223 93.5009 275.012 94.1511C274.82 94.7413 274.511 95.2745 274.299 95.8362C274.054 96.3778 274.018 96.9912 274.198 97.558C274.423 98.0545 274.758 98.493 275.179 98.8401C275.547 99.1575 275.882 99.5106 276.18 99.8944C276.417 100.234 276.576 100.621 276.647 101.029C276.717 101.437 276.697 101.856 276.587 102.255C276.413 102.857 276.034 103.379 275.516 103.733C275.196 103.957 274.833 104.115 274.45 104.197C274.202 104.225 274.072 104.225 274.072 104.233Z" fill="#263238"/>
<path d="M218.834 87.9395C218.839 87.9071 218.839 87.8743 218.834 87.8418C218.834 87.7686 218.834 87.675 218.867 87.5529C218.899 87.2883 218.94 86.9179 218.993 86.4417C219.046 85.9654 219.127 85.3712 219.274 84.6996C219.425 83.9368 219.667 83.1949 219.994 82.4894C220.388 81.6336 220.961 80.8728 221.675 80.2588C222.077 79.9264 222.529 79.6599 223.015 79.4692C223.541 79.2937 224.078 79.1496 224.622 79.0377C225.204 78.9113 225.756 78.6765 226.25 78.3458C226.748 77.9748 227.196 77.5427 227.586 77.0596C227.993 76.5874 228.4 76.0827 228.835 75.6309C229.285 75.1665 229.816 74.7885 230.402 74.5156C231.599 74.0139 232.886 73.7672 234.184 73.7911C235.381 73.7731 236.578 73.8438 237.765 74.0027C239.774 74.2572 241.727 74.8417 243.545 75.7326C244.771 76.3413 245.892 77.1409 246.867 78.1016C247.038 78.2766 247.192 78.4231 247.318 78.5615L247.624 78.9238L247.811 79.1436C247.856 79.1924 247.88 79.2168 247.88 79.2128C247.865 79.1833 247.846 79.1559 247.823 79.1314L247.648 78.9034C247.563 78.8017 247.465 78.6755 247.351 78.533C247.237 78.3906 247.078 78.2359 246.911 78.0568C245.946 77.0679 244.825 76.243 243.594 75.6146C241.765 74.699 239.794 74.099 237.765 73.8399C236.572 73.6747 235.368 73.5998 234.163 73.6161C232.859 73.5978 231.565 73.8486 230.361 74.3528C229.754 74.6332 229.202 75.0222 228.733 75.5006C228.273 75.9646 227.883 76.4694 227.48 76.9415C227.099 77.4143 226.66 77.8369 226.173 78.1992C225.692 78.5244 225.153 78.7538 224.586 78.8749C224.034 78.9896 223.491 79.1378 222.958 79.3186C222.461 79.5145 221.999 79.7894 221.59 80.1326C220.866 80.7619 220.286 81.5392 219.889 82.412C219.565 83.1288 219.329 83.8818 219.184 84.6548C219.069 85.2347 218.983 85.8203 218.928 86.4091C218.879 86.8894 218.851 87.2679 218.834 87.5244C218.834 87.6424 218.834 87.7401 218.814 87.8134L218.834 87.9395Z" fill="#263238"/>
<path d="M241.354 109.463C241.332 109.116 241.217 108.781 241.019 108.494C240.822 108.208 240.551 107.98 240.235 107.835C239.914 107.7 239.559 107.666 239.219 107.739C238.878 107.812 238.568 107.987 238.33 108.242C238.119 108.496 237.995 108.812 237.979 109.142C237.962 109.472 238.052 109.799 238.237 110.074C238.411 110.357 238.666 110.582 238.969 110.721C239.362 110.891 239.798 110.938 240.219 110.855C240.569 110.807 240.889 110.632 241.118 110.363C241.3 110.1 241.384 109.781 241.354 109.463V109.463Z" fill="#5B342F"/>
<path d="M240.695 106.96C240.504 106.96 240.606 108.25 239.58 109.26C238.554 110.269 237.166 110.237 237.174 110.42C237.174 110.501 237.5 110.644 238.082 110.611C238.837 110.556 239.55 110.239 240.097 109.716C240.621 109.211 240.928 108.522 240.952 107.795C240.96 107.249 240.789 106.944 240.695 106.96Z" fill="#263238"/>
<path d="M263.216 128.354L253.216 124.56C253.216 124.56 245.482 129.139 239.56 128.191C234.952 127.454 234.574 125.085 234.574 125.085L229.034 125.981C229.034 125.981 220.637 132.974 218.887 140.048C217.849 144.236 217.6 149.723 217.6 154.534C217.6 156.459 220.043 164.075 220.043 164.075L220.995 175.093L216.359 193.463H264.747V142.645L263.216 128.354Z" fill="#FFCA59"/>
<path d="M209.073 158.67L202.047 141.078L222.208 127.031L229.034 125.981L227.259 150.879L209.073 158.67Z" fill="#FFCA59"/>
<path d="M219.599 162.011C219.55 161.934 219.508 161.852 219.473 161.767C219.4 161.6 219.274 161.36 219.152 161.047C218.785 160.15 218.485 159.227 218.252 158.287C217.52 155.171 217.311 151.955 217.634 148.771C217.965 145.597 218.55 142.456 219.384 139.376C219.693 138.196 219.954 137.239 220.141 136.584L220.365 135.827C220.386 135.737 220.416 135.65 220.454 135.566C220.45 135.659 220.433 135.751 220.405 135.839C220.357 136.034 220.296 136.291 220.222 136.604C220.051 137.292 219.815 138.232 219.53 139.413C218.741 142.488 218.178 145.617 217.845 148.775C217.524 151.938 217.711 155.133 218.399 158.238C218.612 159.174 218.884 160.096 219.213 160.998C219.323 161.319 219.433 161.564 219.494 161.73C219.54 161.819 219.576 161.914 219.599 162.011Z" fill="#263238"/>
<g opacity="0.3">
<path opacity="0.3" d="M217.3 152.279L217.74 151.961C217.713 146.504 218.593 141.081 220.345 135.912C217.089 140.76 215.697 146.861 217.3 152.279Z" fill="black"/>
</g>
<path opacity="0.3" d="M231.171 149.849C231.171 149.849 238.09 175.537 241.978 180.247C245.865 184.956 247.957 186.352 253.92 186.836C259.883 187.321 262.097 180.413 263.424 177.723C264.751 175.032 264.507 170.995 264.507 170.995L256.366 166.452L249.935 177.035L233.369 149.389L231.171 149.849Z" fill="black"/>
<path d="M232.258 153.195C232.258 153.195 239.324 169.635 244.392 179.062C248.682 187.048 257.417 186.16 260.213 181.72C263.01 177.279 267.638 163.985 267.638 163.985L252.874 161.392L251.246 166.069L240.053 151.795L232.258 153.195Z" fill="#824E44"/>
<path d="M244.334 150.822L243.247 145.905C243.247 145.905 242.751 144.546 241.941 145.746C241.131 146.947 241.509 149.21 241.509 149.21C241.509 149.21 239.979 137.516 238.636 136.242C238.143 135.774 237.472 136.417 237.472 136.417C237.472 136.417 237.313 134.13 236.596 134.142C235.88 134.154 235.204 135.864 235.204 135.864C234.939 135.728 234.634 135.69 234.343 135.756C234.052 135.823 233.794 135.989 233.613 136.226C232.986 136.987 232.982 143.345 232.982 143.345C232.982 143.345 232.384 138.106 231.447 137.777C229.941 137.247 229.941 139.242 229.941 139.242L230.381 146.06C230.381 146.06 231.195 150.712 232.233 153.639C233.271 156.565 233.861 156.594 233.861 156.594L240.598 156.415C240.598 156.415 242.12 155.027 243.316 153.948C243.748 153.564 244.07 153.072 244.249 152.523C244.428 151.973 244.457 151.386 244.334 150.822Z" fill="#824E44"/>
<path d="M255.756 172.7C255.711 172.635 255.673 172.565 255.642 172.492C255.565 172.338 255.471 172.138 255.353 171.894L254.828 170.982C254.616 170.636 254.352 170.246 254.075 169.814C252.907 168.105 251.144 165.854 249.142 163.416C247.139 160.977 245.279 158.792 243.981 157.18C243.329 156.366 242.817 155.71 242.471 155.242L242.088 154.697C242.038 154.636 241.997 154.569 241.966 154.497C242.023 154.551 242.074 154.61 242.12 154.672L242.528 155.193C242.89 155.641 243.419 156.288 244.086 157.082C245.413 158.67 247.282 160.839 249.292 163.281C251.303 165.723 253.045 167.995 254.177 169.729C254.45 170.172 254.706 170.567 254.914 170.925C255.121 171.283 255.28 171.597 255.406 171.857C255.532 172.118 255.593 172.313 255.662 172.48C255.703 172.549 255.734 172.623 255.756 172.7V172.7Z" fill="#5B342F"/>
<path d="M261.556 127.914C261.556 127.914 269.615 129.563 271.63 138.672C273.494 147.061 272.916 164.905 272.916 164.905L250.985 161.059L256.326 130.592L261.556 127.914Z" fill="#FFCA59"/>
<path d="M254.099 142.469C254.102 142.502 254.102 142.535 254.099 142.567C254.099 142.645 254.074 142.734 254.062 142.848C254.021 143.113 253.968 143.471 253.899 143.927C253.749 144.883 253.533 146.235 253.268 147.899C252.711 151.27 251.945 155.91 251.091 161.071L251.005 160.949L251.726 161.079L265.345 163.521L269.468 164.315L270.588 164.535L270.877 164.596L270.974 164.624C270.941 164.63 270.906 164.63 270.873 164.624L270.579 164.579L269.452 164.4L265.317 163.696L251.685 161.287L250.965 161.16L250.863 161.14V161.038C251.742 155.881 252.528 151.241 253.101 147.875C253.395 146.214 253.631 144.867 253.802 143.914C253.883 143.463 253.952 143.1 254.001 142.84C254.001 142.73 254.042 142.636 254.058 142.563C254.067 142.53 254.08 142.498 254.099 142.469V142.469Z" fill="#263238"/>
<path d="M255.349 139.543C255.39 139.363 255.445 139.188 255.516 139.018C255.638 138.688 255.821 138.204 256.07 137.63C256.676 136.086 257.571 134.671 258.707 133.462C259.357 132.813 260.116 132.284 260.95 131.899C261.627 131.584 262.341 131.356 263.075 131.219C263.566 131.124 264.064 131.073 264.564 131.064C264.748 131.051 264.933 131.061 265.114 131.093C264.439 131.148 263.768 131.239 263.103 131.366C261.502 131.695 260.027 132.474 258.854 133.612C257.74 134.804 256.845 136.182 256.208 137.683L255.593 139.042C255.531 139.218 255.449 139.386 255.349 139.543V139.543Z" fill="#263238"/>
<path d="M235.079 144.37C235.007 143.959 234.97 143.543 234.969 143.125C234.929 142.356 234.884 141.293 234.88 140.113C234.867 139.106 234.908 138.099 235.002 137.097C235.019 136.683 235.088 136.273 235.205 135.876C235.208 136.292 235.189 136.707 235.148 137.121C235.108 137.886 235.087 138.949 235.091 140.125C235.095 141.301 235.091 142.299 235.116 143.133C235.138 143.546 235.126 143.96 235.079 144.37V144.37Z" fill="#5B342F"/>
<path d="M237.304 136.494C237.355 136.831 237.377 137.172 237.369 137.512C237.369 138.139 237.413 139.006 237.462 139.954C237.511 140.903 237.572 141.774 237.621 142.396C237.665 142.734 237.679 143.074 237.662 143.414C237.56 143.089 237.496 142.753 237.47 142.413C237.385 141.786 237.299 140.923 237.251 139.97C237.202 139.018 237.198 138.139 237.218 137.508C237.209 137.168 237.237 136.828 237.304 136.494Z" fill="#5B342F"/>
<path d="M85.8223 89.3436C85.281 85.721 84.3814 81.7606 81.9922 78.9846C80.3834 77.0473 78.4647 75.3899 76.3141 74.0799C73.8963 72.6187 71.7634 72.1384 69.1706 71.8616L67.4692 73.3717C72.9113 74.6864 77.6451 78.4677 80.4251 83.3236C83.2051 88.1795 84.0884 94.0408 83.1726 99.5683C82.5824 103.183 81.2676 106.638 80.2663 110.151C79.265 113.664 78.5772 117.404 79.2732 121.003C82.2608 119.843 81.4182 121.817 82.68 118.858C83.9418 115.898 84.5972 109.414 85.3298 106.288C86.5387 101.152 86.5713 94.3053 85.8223 89.3436Z" fill="#FFCA59"/>
<path d="M82.893 81.2804C78.3098 74.1532 67.6048 71.9552 67.6048 71.9552C51.9341 70.8359 49.1337 82.8759 47.5503 93.8454C46.5694 100.659 50.2042 121.984 50.2042 121.984L54.0425 123.372H79.2785C79.2785 122.912 81.0654 119.053 81.505 117.795C83.7844 106.366 85.5916 85.4687 82.893 81.2804Z" fill="#263238"/>
<path d="M69.8341 76.0379L68.8531 75.1017L58.2703 79.3715C57.533 79.4117 56.8376 79.7265 56.3208 80.2538C55.804 80.7811 55.5034 81.4828 55.478 82.2207L55.5716 116.741C55.5716 119.082 56.0234 121.109 57.4399 122.973L58.9256 124.939C62.3202 129.416 69.3008 129.05 71.9832 124.125C72.1486 123.846 72.2759 123.546 72.3617 123.233C72.427 122.978 72.4786 122.72 72.5164 122.46C72.8339 119.684 72.8502 117.274 72.8502 117.274C73.0415 114.226 73.1025 112.976 73.1025 113.005C73.1025 113.033 79.5906 112.26 81.3449 103.928C82.2201 99.7841 82.0532 94.0857 81.809 88.4605C81.4589 80.7187 76.0739 76.0297 69.8341 76.0379Z" fill="#FFBF9D"/>
<path d="M67.9179 93.6584C67.9062 93.9395 67.7852 94.2049 67.5807 94.398C67.3761 94.5911 67.1042 94.6967 66.8229 94.6922C66.6857 94.696 66.549 94.6723 66.421 94.6225C66.2931 94.5728 66.1763 94.4979 66.0777 94.4023C65.9791 94.3067 65.9006 94.1924 65.8469 94.066C65.7931 93.9397 65.7651 93.8038 65.7646 93.6665C65.7763 93.3858 65.8965 93.1206 66.1001 92.9269C66.3037 92.7332 66.5745 92.6262 66.8555 92.6286C66.9932 92.6253 67.1301 92.6495 67.2583 92.6997C67.3865 92.7499 67.5035 92.8251 67.6024 92.921C67.7012 93.0168 67.7801 93.1314 67.8342 93.258C67.8884 93.3846 67.9168 93.5207 67.9179 93.6584V93.6584Z" fill="#263238"/>
<path d="M78.5902 94.0207C78.5786 94.301 78.4582 94.5658 78.2545 94.7589C78.0508 94.9519 77.78 95.058 77.4994 95.0545C77.3619 95.0583 77.2251 95.0347 77.0969 94.9849C76.9687 94.9352 76.8517 94.8604 76.7527 94.7648C76.6538 94.6693 76.5749 94.555 76.5207 94.4286C76.4665 94.3023 76.438 94.1663 76.437 94.0288C76.4486 93.7481 76.5689 93.4829 76.7725 93.2892C76.976 93.0955 77.2469 92.9885 77.5279 92.9909C77.6655 92.9876 77.8025 93.0118 77.9307 93.062C78.0589 93.1122 78.1759 93.1874 78.2747 93.2833C78.3736 93.3791 78.4524 93.4937 78.5066 93.6203C78.5607 93.7469 78.5892 93.883 78.5902 94.0207V94.0207Z" fill="#263238"/>
<path d="M80.6914 90.6992C80.549 90.8335 79.7634 90.1904 78.6034 90.1335C77.4433 90.0765 76.5682 90.6178 76.4502 90.4672C76.3891 90.4021 76.5397 90.1538 76.9223 89.9055C77.4408 89.5824 78.0464 89.4275 78.6563 89.4619C79.2596 89.4903 79.8384 89.7098 80.3088 90.0887C80.6507 90.3817 80.7606 90.6422 80.6914 90.6992Z" fill="#263238"/>
<path d="M68.929 90.8213C68.7744 90.9393 68.058 90.2148 66.8939 90.0438C65.7298 89.8729 64.818 90.3125 64.7162 90.1538C64.6633 90.0805 64.8383 89.8525 65.2454 89.6409C65.7942 89.3723 66.413 89.2813 67.016 89.3804C67.6132 89.4709 68.1663 89.7488 68.5953 90.1741C68.929 90.4957 69.0064 90.7684 68.929 90.8213Z" fill="#263238"/>
<path d="M72.9974 99.2549C72.9974 99.1898 73.7219 99.1002 74.8982 99.0107C75.1953 99.0107 75.4762 98.9496 75.5373 98.7502C75.5777 98.4455 75.5237 98.1358 75.3826 97.8628C75.1438 97.1329 74.8901 96.3677 74.6214 95.5672C73.5672 92.3109 72.8183 89.6164 72.9526 89.5757C73.0869 89.535 74.0475 92.1481 75.1017 95.4166C75.3541 96.2306 75.5956 96.9999 75.8262 97.7245C75.9941 98.0921 76.0272 98.5071 75.9199 98.8967C75.8714 98.9987 75.8005 99.0883 75.7123 99.1588C75.6242 99.2293 75.5212 99.2789 75.4111 99.3037C75.2456 99.341 75.0758 99.356 74.9064 99.3485C73.7097 99.3526 72.9974 99.32 72.9974 99.2549Z" fill="#263238"/>
<path d="M73.0923 113.029C69.1371 112.883 65.3002 111.641 62.0088 109.443C62.0088 109.443 64.5446 115.398 72.9987 115.036L73.0923 113.029Z" fill="#FF9A6C"/>
<path d="M72.3472 102.039C72.1411 101.75 71.8647 101.519 71.5441 101.367C71.2235 101.216 70.8694 101.148 70.5156 101.172C70.2589 101.182 70.0068 101.244 69.7746 101.354C69.5423 101.463 69.3347 101.619 69.1642 101.811C69.0009 101.997 68.8979 102.228 68.8688 102.474C68.8397 102.719 68.886 102.968 69.0014 103.187C69.1774 103.405 69.4144 103.565 69.682 103.647C69.9497 103.728 70.2357 103.729 70.5033 103.647C71.0611 103.479 71.5799 103.203 72.0297 102.833C72.1647 102.747 72.2821 102.637 72.3757 102.507C72.4192 102.444 72.4442 102.371 72.4478 102.294C72.4514 102.218 72.4335 102.142 72.396 102.076" fill="#FF9A6C"/>
<path d="M69.5253 99.886C69.7166 99.886 69.6556 101.144 70.6895 102.088C71.7233 103.032 73.0665 102.963 73.0665 103.142C73.0665 103.22 72.7572 103.37 72.1873 103.358C71.45 103.329 70.7467 103.041 70.201 102.544C69.6762 102.068 69.3554 101.407 69.3055 100.7C69.2852 100.179 69.4399 99.8738 69.5253 99.886Z" fill="#263238"/>
<path d="M70.0387 86.3034C69.8799 86.5965 68.7565 86.2749 67.3848 86.2301C66.0131 86.1854 64.8694 86.3848 64.735 86.0795C64.674 85.933 64.9101 85.6725 65.3944 85.4323C66.0373 85.1535 66.7349 85.0241 67.435 85.0537C68.135 85.0833 68.8193 85.2712 69.4363 85.6033C69.9003 85.8801 70.1119 86.165 70.0387 86.3034Z" fill="#263238"/>
<path d="M80.5234 85.7211C80.3036 85.9735 79.5221 85.6601 78.5615 85.599C77.6009 85.5379 76.7787 85.6885 76.6078 85.4036C76.5305 85.2652 76.6729 84.9966 77.0392 84.7768C77.5315 84.5029 78.0939 84.3811 78.6554 84.4267C79.2168 84.4724 79.7522 84.6834 80.1937 85.0332C80.5194 85.3222 80.6171 85.599 80.5234 85.7211Z" fill="#263238"/>
<path d="M55.6789 96.9676C55.6789 96.9676 61.6135 98.8155 64.9715 84.1664C66.1193 79.1599 70.7635 75.1018 70.7635 75.1018L68.879 74.536C68.879 74.536 57.1768 77.833 56.9774 77.9795C56.7779 78.126 54.0264 84.0321 54.0264 84.0321L55.6789 96.9676Z" fill="#263238"/>
<path d="M57.1232 96.4218C57.1517 95.795 56.5045 94.2849 55.9021 94.1587C54.274 93.8209 51.2864 93.8005 51.0503 97.9889C50.7247 103.712 56.5371 102.873 56.5574 102.694C56.5778 102.515 57.0377 98.5831 57.1232 96.4218Z" fill="#FFBF9D"/>
<path d="M54.9382 100.411C54.9138 100.411 54.8324 100.476 54.6615 100.541C54.4191 100.628 54.1527 100.62 53.9166 100.517C53.3223 100.26 52.8705 99.2712 52.899 98.2373C52.9114 97.7452 53.0353 97.2623 53.2613 96.8249C53.3246 96.6498 53.4295 96.4927 53.5671 96.3671C53.7047 96.2416 53.8707 96.1515 54.0509 96.1044C54.1672 96.0796 54.2886 96.0965 54.3936 96.1524C54.4986 96.2082 54.5805 96.2994 54.6248 96.4097C54.694 96.5725 54.6493 96.6865 54.6818 96.6987C54.7144 96.7109 54.808 96.6092 54.7754 96.369C54.7513 96.2262 54.6795 96.0956 54.5719 95.9986C54.4198 95.8712 54.2245 95.807 54.0265 95.8195C53.7907 95.852 53.567 95.9437 53.3762 96.086C53.1854 96.2284 53.0339 96.4168 52.9356 96.6336C52.6641 97.1152 52.5145 97.6561 52.5001 98.2088C52.4716 99.3648 53.0008 100.476 53.8148 100.765C53.966 100.818 54.1271 100.836 54.2863 100.819C54.4456 100.801 54.5988 100.748 54.7347 100.663C54.9179 100.566 54.9586 100.439 54.9382 100.411Z" fill="#FF9A6C"/>
<path d="M59.7036 94.1669C59.7036 94.1669 60.017 94.1669 60.5584 93.9918C61.319 93.7611 62.0156 93.3571 62.5935 92.8115C62.9945 92.4386 63.351 92.0207 63.6559 91.5659C63.9981 91.0375 64.2885 90.4773 64.5229 89.893C65.0118 88.5304 65.4196 87.14 65.744 85.7291C66.1109 84.3223 66.5497 82.9352 67.0587 81.5733C67.4754 80.461 67.9734 79.3808 68.5484 78.3414C68.94 77.6427 69.3779 76.971 69.8591 76.3307C70.03 76.1028 70.1766 75.9237 70.2661 75.8219C70.3119 75.7612 70.3637 75.7053 70.4208 75.655C70.3813 75.7201 70.3378 75.7826 70.2905 75.8423C70.2051 75.9644 70.0667 76.1313 69.8835 76.3633C69.4208 77.0154 68.998 77.6951 68.6176 78.3984C68.0589 79.4393 67.5734 80.5179 67.1645 81.6262C66.6964 82.8799 66.265 84.2841 65.8661 85.7739C65.5353 87.1901 65.118 88.5848 64.6165 89.95C64.3764 90.5414 64.0778 91.1073 63.7251 91.6392C63.4112 92.0991 63.0436 92.5199 62.6302 92.8929C62.035 93.4427 61.3159 93.8407 60.534 94.0529C60.2635 94.1276 59.9842 94.1659 59.7036 94.1669V94.1669Z" fill="#263238"/>
<path d="M50.8424 118.035C50.932 117.373 50.9742 116.705 50.9686 116.037C50.9445 114.207 50.7593 112.384 50.4151 110.587L49.7475 106.875C49.4896 105.456 49.3184 104.024 49.2347 102.585C49.1341 100.997 49.2505 99.4029 49.5806 97.8467C49.7677 97.0292 50.0406 96.2338 50.3947 95.4737C50.761 94.6903 51.2158 93.9515 51.7501 93.2716C52.8328 91.9497 54.039 90.7339 55.3524 89.6409C56.606 88.5582 57.7946 87.4917 58.8773 86.3846C60.7797 84.4593 62.5019 82.3639 64.0222 80.1245C65.0506 78.6183 65.9819 77.048 66.8103 75.4232C67.1034 74.8493 67.3232 74.3975 67.4616 74.0882C67.5267 73.9389 67.5796 73.8209 67.6203 73.734C67.6431 73.6963 67.6596 73.655 67.6692 73.6119L67.604 73.73L67.4331 74.0719C67.2825 74.3772 67.0586 74.8249 66.7574 75.3947C64.6434 79.4084 61.9452 83.086 58.7511 86.3073C57.6847 87.3941 56.488 88.4523 55.2303 89.5391C53.9061 90.6405 52.6916 91.8673 51.6036 93.2024C51.0632 93.8915 50.603 94.6398 50.2319 95.433C49.8784 96.206 49.6056 97.0135 49.4178 97.8426C49.0873 99.4125 48.9723 101.02 49.0759 102.621C49.1643 104.065 49.341 105.502 49.6051 106.923C49.8534 108.259 50.0813 109.5 50.293 110.636C50.6478 112.421 50.8493 114.233 50.8954 116.053C50.8954 116.696 50.8954 117.197 50.8587 117.535C50.8587 117.698 50.8587 117.828 50.8343 117.942C50.8099 118.056 50.8424 118.035 50.8424 118.035Z" fill="#455A64"/>
<path d="M49.0024 118.573C49.092 117.911 49.1341 117.243 49.1286 116.574C49.1052 114.749 48.92 112.929 48.575 111.137C48.3715 110.001 48.168 108.759 47.9115 107.424C47.6514 106.006 47.4801 104.574 47.3987 103.134C47.2961 101.548 47.4125 99.955 47.7447 98.4005C47.931 97.5815 48.2039 96.7847 48.5587 96.0234C48.9269 95.2411 49.3815 94.5025 49.9141 93.8214C50.9972 92.4997 52.2049 91.2852 53.5204 90.1947C54.7741 89.1079 55.9626 88.0415 57.0413 86.9384C58.9438 85.0121 60.6672 82.9167 62.1902 80.6783C63.212 79.1752 64.1378 77.6091 64.9621 75.9893C65.2552 75.4154 65.4709 74.9636 65.6093 74.6542C65.6785 74.5036 65.7314 74.3896 65.7681 74.3001C65.7883 74.2606 65.806 74.2198 65.821 74.178C65.7963 74.2156 65.7745 74.2551 65.7558 74.296C65.7111 74.3774 65.6541 74.4955 65.5808 74.642C65.4343 74.9473 65.2063 75.3909 64.9051 75.9608C62.7978 79.9651 60.1079 83.6344 56.9232 86.8489C55.8568 87.9357 54.6561 88.994 53.4024 90.0807C52.0755 91.1791 50.8607 92.4062 49.7757 93.744C49.2347 94.432 48.7732 95.1789 48.4 95.9705C48.0446 96.7428 47.7717 97.5505 47.5859 98.3801C47.2534 99.9498 47.1384 101.558 47.244 103.159C47.3324 104.602 47.5091 106.039 47.7731 107.461C48.0174 108.796 48.2494 110.038 48.457 111.173C48.8107 112.959 49.0136 114.771 49.0634 116.591C49.0634 117.234 49.0634 117.735 49.0268 118.072L49.0024 118.459C48.9976 118.497 48.9976 118.535 49.0024 118.573V118.573Z" fill="#455A64"/>
<path d="M40.7238 193.414C40.7238 193.414 40.1906 188.648 43.2393 180.69C45.7344 174.178 48.665 170.567 48.665 170.567L88.1472 167.966L91.1918 193.414H40.7238Z" fill="#263238"/>
<path d="M87.6842 153.167C88.2622 144.379 87.6842 131.057 87.6842 131.057L81.1717 120.12L72.5915 118.772C72.5915 118.772 72.567 124.78 68.0775 125.773C60.3968 127.471 55.3903 118.235 55.3903 118.235C54.6657 118.235 43.741 120.531 40.2771 123.828C36.7197 127.214 30.8299 136.193 29.1692 138.77C29.1692 138.77 17.6421 155.572 15.9651 160.18C15.5065 161.353 15.3188 162.615 15.4161 163.871C15.5133 165.127 15.893 166.344 16.5268 167.433C16.8768 168.471 27.5167 183.743 35.7672 189.844L36.4103 188.623L40.6882 181.297L29.6088 163.094L42.471 149.54L44.9987 147.167L45.7232 150.362L48.8411 165.39C48.8411 165.39 42.6298 177.808 41.7587 184.264C41.7587 184.264 72.2862 194.79 91.144 189.592C91.1359 189.592 87.1022 161.959 87.6842 153.167Z" fill="#EBEBEB"/>
<path d="M55.5649 177.996C55.5649 177.996 50.3956 176.599 49.8665 176.892C49.3374 177.186 45.4868 179.221 45.4868 179.221C44.9251 179.919 44.3173 180.578 43.6674 181.195C43.6674 181.195 42.3405 182.453 41.4287 182.493C40.939 182.529 40.4468 182.477 39.9756 182.339L36.4019 188.627C36.4019 188.627 38.5225 190.662 39.6581 190.626C40.7937 190.589 46.9847 187.988 46.9847 187.988L48.4907 187.663C48.4907 187.663 54.1403 188.477 54.5962 186.779L54.6817 186.295L49.1298 185.208L47.0173 185.33L50.7579 184.366C50.7579 184.366 56.0493 184.622 56.55 184.537C57.0506 184.451 57.6815 183.747 57.5187 183.315L56.4279 183.059C56.4279 183.059 57.71 182.359 57.7507 181.594L52.8663 180.271C52.8663 180.271 56.0045 179.09 55.5649 177.996Z" fill="#FFBF9D"/>
<path d="M57.001 183.038C56.8465 183.02 56.6947 182.983 56.5492 182.929C56.2643 182.843 55.8532 182.729 55.3281 182.595C54.2983 182.33 52.8859 181.992 51.2903 181.642C51.1012 181.594 50.9096 181.556 50.7164 181.528C50.5349 181.515 50.3525 181.529 50.1751 181.569C49.8209 181.667 49.4628 181.789 49.1331 181.899C48.4737 182.123 47.8835 182.351 47.3991 182.558C46.9147 182.766 46.5321 182.965 46.2757 183.108C46.147 183.193 46.0107 183.267 45.8687 183.327C45.9726 183.211 46.0933 183.111 46.2268 183.03C46.58 182.799 46.9485 182.592 47.3299 182.412C47.8952 182.144 48.474 181.907 49.0639 181.699C49.4017 181.577 49.7395 181.455 50.1221 181.349C50.3231 181.3 50.5306 181.284 50.7368 181.3C50.9525 181.3 51.1438 181.378 51.3432 181.414C52.9266 181.768 54.3512 182.131 55.3688 182.44C55.8817 182.595 56.2887 182.733 56.5655 182.847C56.7192 182.889 56.866 182.954 57.001 183.038Z" fill="#FF9A6C"/>
<path d="M52.9712 180.507C52.9508 180.539 52.5641 180.324 51.9292 180.124C51.0842 179.858 50.1897 179.787 49.3133 179.917C48.4369 180.047 47.6014 180.374 46.8698 180.873C46.304 181.252 46.0109 181.565 45.9824 181.537C46.1943 181.212 46.4715 180.934 46.7965 180.723C47.5301 180.168 48.3914 179.807 49.3011 179.673C50.2109 179.538 51.1398 179.635 52.0024 179.953C52.3587 180.072 52.6879 180.26 52.9712 180.507V180.507Z" fill="#FF9A6C"/>
<path d="M114.21 141.2L94.062 126.201L86.54 121.247L80.98 120.12L83.3408 143.609H88.563L111.027 153.374L138.547 155.711L138.95 147.179L114.21 141.2Z" fill="#EBEBEB"/>
<path d="M88.0588 163.464C88.0395 163.349 88.0286 163.232 88.0262 163.114C88.0262 162.866 88.0018 162.536 87.9855 162.117C87.9529 161.246 87.9163 159.988 87.8878 158.454C87.8593 156.919 87.839 155.047 87.8349 152.995C87.8308 150.944 87.8349 148.681 87.8349 146.312C87.8349 141.57 86.9353 137.357 86.2271 134.325C85.873 132.815 85.5636 131.598 85.3561 130.755C85.2543 130.348 85.177 130.022 85.1159 129.782C85.085 129.67 85.0633 129.556 85.0508 129.44C85.0955 129.547 85.1322 129.658 85.1607 129.77C85.2258 130.01 85.3194 130.328 85.4334 130.731C85.6654 131.569 85.9992 132.766 86.3736 134.292C87.4134 138.215 87.9751 142.25 88.0465 146.308C88.0832 148.681 88.0465 150.94 88.0465 152.995C88.0465 155.051 88.0465 156.899 88.0465 158.45C88.0465 160 88.0465 161.242 88.075 162.113C88.075 162.52 88.075 162.866 88.075 163.114C88.0801 163.231 88.0747 163.348 88.0588 163.464V163.464Z" fill="#263238"/>
<g opacity="0.3">
<path opacity="0.3" d="M87.9195 144.053C88.7312 141.001 88.7591 137.794 88.0006 134.729C87.2421 131.663 85.7217 128.839 83.5806 126.518C85.8669 132.003 87.3423 137.792 87.9602 143.703" fill="black"/>
</g>
<path d="M71.3091 72.1343C58.6911 73.2659 58.1986 88.6883 56.5216 100.855C54.1242 118.235 66.8399 121.967 66.8399 121.967L51.043 119.004C51.043 119.004 42.4017 115.508 42.4627 105.914C42.5238 96.3202 44.0339 84.5773 54.0916 75.6551C62.7777 67.9459 70.5154 71.6092 71.3091 72.1343Z" fill="#FFCA59"/>
<path d="M83.5807 118.235C82.6283 117.372 82.9987 117.042 80.2715 116.794C77.1903 116.509 73.759 118.479 70.6859 118.89C67.6128 119.301 64.3444 118.89 61.7719 117.173C58.7517 115.162 57.1236 111.694 55.6176 108.397L48.2096 114.502C47.4927 115.08 46.9188 115.816 46.5326 116.652C46.1464 117.488 45.9584 118.401 45.9831 119.322C45.9711 119.637 46.0324 119.95 46.1622 120.238C46.5937 120.889 49.7726 119.35 50.4116 119.798C53.8063 122.171 55.2512 125.94 58.361 128.679C61.9958 131.875 65.3579 134.414 67.9181 134.325C70.4783 134.235 75.204 131.529 76.8972 128.386C78.4643 125.484 79.8319 123.368 81.0653 121.153C81.7124 119.981 83.9715 121.626 84.2442 120.238C84.3139 119.875 84.2895 119.5 84.1734 119.15C84.0572 118.799 83.8532 118.484 83.5807 118.235V118.235Z" fill="#FFCA59"/>
<path d="M42.4707 136.356C42.51 136.449 42.54 136.546 42.5603 136.645L42.7841 137.483C42.9714 138.236 43.2319 139.286 43.5493 140.573C44.1802 143.19 45.0309 146.808 45.9305 150.814C46.83 154.819 47.6075 158.454 48.1244 161.095C48.3808 162.418 48.5721 163.489 48.6902 164.233C48.7417 164.589 48.7824 164.874 48.8123 165.088C48.8335 165.187 48.843 165.288 48.8408 165.389C48.8086 165.294 48.7854 165.196 48.7716 165.096C48.7309 164.881 48.6779 164.6 48.6088 164.246C48.4541 163.485 48.2424 162.426 47.9779 161.124C47.4243 158.494 46.6224 154.864 45.727 150.858C44.8315 146.853 44.0011 143.251 43.4028 140.609C43.1138 139.315 42.8737 138.257 42.7027 137.5C42.6294 137.15 42.5684 136.869 42.5195 136.653C42.4948 136.556 42.4784 136.456 42.4707 136.356V136.356Z" fill="#263238"/>
<path d="M83.5809 119.83C83.5561 119.851 83.5288 119.869 83.4995 119.883L83.2471 120.03C82.9243 120.223 82.5915 120.398 82.2499 120.555C80.994 121.138 79.6764 121.578 78.322 121.866C76.3146 122.297 74.2696 122.531 72.2165 122.562C69.9005 122.631 67.3606 122.513 64.7027 122.338C63.3717 122.252 62.0692 122.122 60.8237 121.931C59.5782 121.739 58.3815 121.479 57.2703 121.194C55.283 120.681 53.3511 119.973 51.5026 119.081C50.257 118.481 49.0619 117.782 47.9289 116.989C47.5219 116.721 47.2329 116.472 47.0253 116.322L46.7973 116.139C46.7444 116.098 46.72 116.074 46.7241 116.069L46.8095 116.122L47.0538 116.285C47.2654 116.428 47.5626 116.664 47.9777 116.92C49.1217 117.688 50.3217 118.368 51.5678 118.955C53.4167 119.819 55.3421 120.509 57.3191 121.015C58.4344 121.292 59.6189 121.536 60.8562 121.731C62.0936 121.927 63.388 122.049 64.7149 122.138C67.3728 122.313 69.9046 122.435 72.2084 122.378C74.2518 122.353 76.2881 122.132 78.2894 121.719C79.6367 121.447 80.9508 121.03 82.2092 120.478C82.665 120.299 82.9866 120.099 83.2227 119.993L83.4832 119.867C83.5134 119.849 83.5465 119.837 83.5809 119.83Z" fill="#263238"/>
<path d="M59.3825 121.483L59.3052 121.434L59.0813 121.272L58.2306 120.637C57.8643 120.356 57.4165 119.989 56.924 119.578C56.6717 119.371 56.4152 119.131 56.1344 118.886C55.8535 118.642 55.5686 118.378 55.2756 118.072C53.8687 116.742 52.6377 115.237 51.6123 113.595C50.358 111.561 49.6487 109.238 49.5527 106.85C49.5271 104.474 49.8521 102.107 50.5173 99.8251C51.075 97.7167 51.6814 95.8525 52.174 94.2772C52.6665 92.702 53.0491 91.4524 53.3299 90.557C53.4561 90.1296 53.5579 89.7877 53.6352 89.5394C53.6678 89.4336 53.6963 89.3481 53.7207 89.2789C53.7279 89.2472 53.7403 89.217 53.7573 89.1893C53.7573 89.1893 53.7573 89.2219 53.7573 89.283L53.6922 89.5516L53.4236 90.5773C53.1793 91.4646 52.8089 92.7468 52.3327 94.322C51.8565 95.8972 51.2663 97.7696 50.7046 99.8739C50.0602 102.139 49.7435 104.484 49.7643 106.838C49.8641 109.195 50.5646 111.487 51.7995 113.497C52.8158 115.133 54.0298 116.636 55.4139 117.975C55.7029 118.268 55.9879 118.536 56.2646 118.789C56.5414 119.041 56.7897 119.281 57.038 119.493C57.5386 119.9 57.9579 120.287 58.3202 120.576L59.1342 121.243L59.3459 121.422C59.3622 121.459 59.3866 121.479 59.3825 121.483Z" fill="#263238"/>
<path d="M71.3099 72.1343C71.3099 72.1791 70.6546 72.2117 69.6411 72.5047C69.0489 72.6791 68.4717 72.9009 67.9153 73.1682C67.2393 73.5062 66.5878 73.8912 65.9656 74.3201C64.8432 75.1192 63.7943 76.0169 62.8314 77.0025C62.0906 77.7595 61.6551 78.252 61.6104 78.2236C61.6852 78.0875 61.7753 77.9605 61.879 77.845C62.0622 77.613 62.343 77.2833 62.6931 76.8926C63.631 75.8654 64.6763 74.9416 65.8109 74.1369C66.443 73.7011 67.1085 73.3159 67.8013 72.985C68.3688 72.7191 68.9603 72.5079 69.5678 72.3541C69.8005 72.289 70.037 72.2387 70.2761 72.2035C70.4544 72.1671 70.6355 72.1453 70.8174 72.1384C70.9809 72.1186 71.1461 72.1172 71.3099 72.1343V72.1343Z" fill="#263238"/>
<g opacity="0.3">
<path opacity="0.3" d="M55.1833 85.314C55.2867 84.9311 55.3669 84.5424 55.4234 84.1499C55.4365 83.9984 55.3948 83.8473 55.3059 83.724C55.217 83.6007 55.0868 83.5133 54.939 83.4779C54.7912 83.4424 54.6355 83.4611 54.5003 83.5307C54.3652 83.6002 54.2594 83.7159 54.2023 83.8568C53.3665 86.0656 52.5335 88.2745 51.7031 90.4833C50.075 94.8507 48.3858 99.3281 48.3003 103.993C48.2149 108.657 49.7046 113.851 53.6487 116.346L52.5009 114.311C49.5255 110.241 49.4441 104.672 50.5797 99.7514C51.7153 94.8304 53.9215 90.2065 55.1833 85.314Z" fill="black"/>
</g>
<path d="M83.8212 120.95C83.8009 120.95 83.9189 120.763 84.0084 120.409C84.12 119.905 84.0731 119.379 83.8741 118.903C83.575 118.2 83.0168 117.638 82.3152 117.336C81.4544 116.959 80.5089 116.819 79.5759 116.929C78.6342 117.027 77.7 117.187 76.7795 117.409C75.9248 117.604 75.1514 117.816 74.5287 118.007C73.9059 118.199 73.389 118.369 73.0348 118.487C72.8561 118.558 72.6724 118.615 72.4854 118.658C72.6492 118.557 72.824 118.473 73.0064 118.41C73.3523 118.268 73.853 118.076 74.4839 117.865C75.1148 117.653 75.8759 117.425 76.7348 117.218C77.6627 116.981 78.6069 116.814 79.5596 116.717C80.5319 116.606 81.5162 116.759 82.4088 117.161C83.1513 117.492 83.7354 118.099 84.0369 118.854C84.2311 119.359 84.2554 119.913 84.1061 120.433C84.0653 120.576 84.0065 120.712 83.9311 120.84C83.9004 120.882 83.8633 120.919 83.8212 120.95V120.95Z" fill="#263238"/>
<g opacity="0.3">
<path opacity="0.3" d="M79.6258 121.691C74.7744 123.846 69.4246 124.631 64.1586 123.958C58.9241 123.278 54.5607 121.76 50.4497 118.451C50.4497 118.451 57.007 122.236 67.1869 122.317C75.6328 122.391 79.6258 121.691 79.6258 121.691Z" fill="black"/>
</g>
</svg>
