<svg width="22" height="21" viewBox="0 0 22 21" fill="none" xmlns="http://www.w3.org/2000/svg">
<path d="M2.86823 0.726886C1.9086 1.29668 0.017932 3.4687 0 4.03831V4.98118C0 6.17635 1.11717 7.22681 2.13149 7.22681C3.34944 7.22681 4.36421 6.21741 4.3643 5.01937C4.3643 6.21741 5.34429 7.22681 6.56232 7.22681C7.78045 7.22681 8.72896 6.21741 8.72896 5.01937C8.72896 6.21741 9.771 7.22681 10.989 7.22681H11.0111C12.2292 7.22681 13.2712 6.21741 13.2712 5.01937C13.2712 6.21741 14.2198 7.22681 15.4378 7.22681C16.6558 7.22681 17.6358 6.21741 17.6358 5.01937C17.6358 6.21741 18.6508 7.22681 19.8686 7.22681C20.8829 7.22681 22.0001 6.17653 22.0001 4.98118V4.03831C21.9822 3.46861 20.0915 1.2965 19.1321 0.726886C16.1494 0.622163 14.0817 0.604052 11 0.6045C7.91834 0.604769 3.71705 0.652917 2.86805 0.726886H2.86823ZM8.71354 6.66392C8.59708 6.86694 8.45283 7.05268 8.28497 7.21578C7.82519 7.66534 7.19497 7.944 6.50019 7.944C5.83162 7.94463 5.18947 7.68304 4.71165 7.21542C4.54506 7.05224 4.41846 6.87776 4.30253 6.67459L4.30199 6.67495C4.18615 6.87848 4.02476 7.05287 3.85781 7.21623C3.37981 7.6835 2.73773 7.94487 2.06927 7.94427C1.98553 7.94427 1.89838 7.92114 1.8279 7.89693C1.72999 8.91654 1.68866 9.89097 1.67405 10.6014L1.67387 10.6055C1.67207 10.9663 1.67028 11.263 1.66849 11.6751C1.68732 13.8144 1.45662 18.6089 2.61171 19.787C4.40169 20.2043 7.69545 20.3944 10.9999 20.3956H11.0004C14.3048 20.3944 17.5985 20.2043 19.3885 19.787C20.5436 18.6088 20.3129 13.8143 20.3317 11.675C20.3297 11.263 20.3281 10.9663 20.3263 10.6054L20.3261 10.6014C20.3115 9.8907 20.2702 8.91637 20.1723 7.89675C20.1018 7.92096 20.0148 7.94409 19.9309 7.94409C19.2625 7.94469 18.6204 7.68332 18.1424 7.21605C17.9754 7.05269 17.8141 6.87839 17.6981 6.67477L17.6976 6.67441C17.5816 6.87758 17.4551 7.05215 17.2885 7.21524C16.8107 7.68282 16.1685 7.94438 15.5 7.94373C14.8053 7.94373 14.175 7.66489 13.7152 7.21542C13.5474 7.05233 13.4031 6.86658 13.2867 6.66356C13.1715 6.86635 13.0285 7.05209 12.862 7.21542C12.3841 7.68295 11.7419 7.94447 11.0733 7.94382C11.0491 7.94382 11.0249 7.94274 11.0007 7.94203H11.0001C10.9758 7.94274 10.9516 7.94382 10.9272 7.94382C10.2586 7.94449 9.61639 7.68301 9.13844 7.21551C8.97194 7.05218 8.82902 6.86644 8.71381 6.66365L8.71354 6.66392ZM6.87676 9.03902L6.87658 9.03992H6.87793C7.60534 9.04144 8.25152 9.03992 9.05219 9.91375C9.68232 9.84767 10.3408 9.81467 10.9998 9.81566H11.0003C11.6593 9.81476 12.3178 9.84767 12.948 9.91375C13.7487 9.03983 14.3949 9.04135 15.1223 9.03992H15.1235L15.1234 9.03902C15.467 9.03902 16.8418 9.03902 17.7997 11.7295L18.8287 15.4203C19.5911 18.1661 18.5845 18.2332 17.3289 18.2357C15.4668 18.1663 14.4358 16.8141 14.4358 15.462C13.4051 15.6309 12.2027 15.7154 11.0002 15.7155H10.9997C9.79718 15.7155 8.59474 15.6309 7.5641 15.462C7.5641 16.8141 6.533 18.1663 4.67103 18.2357C3.41543 18.2332 2.4089 18.1662 3.17137 15.4203L4.20058 11.7295C5.15851 9.03911 6.53327 9.03911 6.87694 9.03911L6.87676 9.03902ZM10.9998 11.1534V11.1539C10.998 11.1557 9.03955 12.9543 8.68745 13.594L9.96995 13.5427V14.6611C9.96995 14.7134 10.4846 14.6921 10.9998 14.6683H11.0003C11.5153 14.6921 12.0301 14.7134 12.0301 14.6611V13.5427L13.3126 13.594C12.9604 12.9543 11.0002 11.1539 11.0002 11.1539V11.1534L11 11.1536L10.9998 11.1534Z" fill="white"/>
</svg>
