<svg width="22" height="23" viewBox="0 0 22 23" fill="none" xmlns="http://www.w3.org/2000/svg">
<path d="M17.4167 0.5H4.58333C2.05242 0.5 0 2.55242 0 5.08333V17.9167C0 20.4476 2.05242 22.5 4.58333 22.5H17.4167C19.9485 22.5 22 20.4476 22 17.9167V5.08333C22 2.55242 19.9485 0.5 17.4167 0.5ZM7.33333 17.9167H4.58333V7.83333H7.33333V17.9167ZM5.95833 6.671C5.07283 6.671 4.35417 5.94683 4.35417 5.054C4.35417 4.16117 5.07283 3.437 5.95833 3.437C6.84383 3.437 7.5625 4.16117 7.5625 5.054C7.5625 5.94683 6.84475 6.671 5.95833 6.671ZM18.3333 17.9167H15.5833V12.7797C15.5833 9.69233 11.9167 9.92608 11.9167 12.7797V17.9167H9.16667V7.83333H11.9167V9.45125C13.1963 7.08075 18.3333 6.90567 18.3333 11.7209V17.9167Z" fill="white"/>
</svg>
