<svg width="22" height="19" viewBox="0 0 22 19" fill="none" xmlns="http://www.w3.org/2000/svg">
<path d="M19.7477 4.93743C19.7611 5.13461 19.7611 5.33178 19.7611 5.53078C19.7611 11.5941 15.2208 18.587 6.91863 18.587V18.5834C4.46614 18.587 2.06459 17.8728 0 16.5262C0.356612 16.5698 0.715011 16.5916 1.0743 16.5925C3.10672 16.5944 5.08105 15.9011 6.67999 14.6244C4.74857 14.5872 3.05489 13.3069 2.46321 11.4378C3.13979 11.5705 3.83693 11.5432 4.501 11.3588C2.39529 10.9263 0.880358 9.04539 0.880358 6.86102C0.880358 6.84103 0.880358 6.82195 0.880358 6.80287C1.50778 7.15815 2.21028 7.35532 2.92886 7.37713C0.945602 6.02962 0.334268 3.34732 1.53191 1.25018C3.82352 4.11693 7.20463 5.8597 10.8342 6.04416C10.4704 4.4504 10.9674 2.78033 12.14 1.65998C13.9579 -0.0773404 16.8171 0.0117063 18.5259 1.85897C19.5368 1.65634 20.5056 1.27926 21.3922 0.744977C21.0553 1.80718 20.3501 2.70945 19.4081 3.2828C20.3027 3.17558 21.1768 2.93207 22 2.56044C21.394 3.48361 20.6308 4.28776 19.7477 4.93743Z" fill="white"/>
</svg>
