<svg width="136" height="123" viewBox="0 0 136 123" fill="none" xmlns="http://www.w3.org/2000/svg">
<path d="M92.82 1.72269e-06C99.271 1.90769e-06 105.229 3.45219 108.437 9.049L133.37 52.549C136.547 58.0933 136.547 64.9067 133.37 70.451L108.437 113.951C105.229 119.548 99.271 123 92.82 123L43.18 123C36.729 123 30.7713 119.548 27.5634 113.951L2.63045 70.451C-0.547361 64.9067 -0.547356 58.0933 2.63045 52.549L27.5634 9.04899C30.7713 3.45218 36.729 1.14111e-07 43.18 2.99112e-07L92.82 1.72269e-06Z" fill="url(#paint0_linear_907:302)"/>
<defs>
<linearGradient id="paint0_linear_907:302" x1="68" y1="0" x2="68" y2="123" gradientUnits="userSpaceOnUse">
<stop stop-color="#FFB341"/>
<stop offset="1" stop-color="#FFD644"/>
</linearGradient>
</defs>
</svg>
